<?xml version="1.0" encoding="utf-8" ?>
<svg baseProfile="full" height="200mm" version="1.1" viewBox="0,0,200,200" width="200mm" xmlns="http://www.w3.org/2000/svg" xmlns:ev="http://www.w3.org/2001/xml-events" xmlns:xlink="http://www.w3.org/1999/xlink"><defs /><rect fill="#1a1a1a" height="200" width="200" x="0" y="0" /><text alignment-baseline="middle" fill="#e1ed5e" style="dominant-baseline: central; font-size:9.0px; font-family:Arial;" text-anchor="middle" x="100.0" y="100.0">2018</text><line stroke="#e1ed5e" stroke-width="0.3" x1="100.0" x2="100.0" y1="15.0" y2="10.0" /><path d="M 100.0 14.0 a86.0,86.0 0 0,1 42.46469731375804,11.215312516191453" fill="none" id="id13" stroke="none" /><text fill="#e1ed5e" style="font-size:6.75px; font-family:Arial;" text-anchor="middle"><textPath startOffset="22.20632615414155" xlink:href="#id13">January</textPath></text><path d="M 102.88285421437855 79.19881850522331 l 3.2648550673897296 -23.557501614959286 a44.78266513555345,44.78266513555345 0 0,0 0.7626509615023843,0.11239492698171123 l -3.6698750093207697 23.497812203816604" fill="#fffa17" stroke="none" /><path d="M 103.59715602781102 79.31037775812273 l 3.9347093132606696 -22.631114328532046 a43.97061760447352,43.97061760447352 0 0,0 0.7445793403937838,0.13606711522559303 l -4.323683774757354 22.560031731955714" fill="#ffef16" stroke="none" /><path d="M 103.95276090670814 79.375362276772 l 4.604219479429859 -24.02380538633529 a45.46103150431874,45.46103150431874 0 0,0 0.7672817440668487,0.15390949964792672 l -5.017067632963833 23.940991930610156" fill="#fbff18" stroke="none" /><path d="M 104.307194497241 79.44645832069477 l 4.987606069924139 -23.800404022573566 a45.31738978481202,45.31738978481202 0 0,0 0.762103139279855,0.16656622823407477 l -5.3965519333575225 23.71102429624362" fill="#fdff18" stroke="none" /><path d="M 105.01212808612495 79.60689891045804 l 5.851444956705766 -23.808072433808967 a45.51660092865346,45.51660092865346 0 0,0 0.7592409867894401,0.19354743273838482 l -6.260394832180231 23.703822004901713" fill="#faff18" stroke="none" /><path d="M 105.71112130821622 79.79150937346287 l 4.345715926799602 -15.37707830614304 a36.97935493534375,36.97935493534375 0 0,0 0.6110570430877021,0.17838430716470052 l -4.6097631876107314 15.299995670059637" fill="#ff8c0c" stroke="none" /><line stroke="#e1ed5e" stroke-width="0.3" x1="143.23703022742887" x2="145.7803849466894" y1="26.81831364943548" y2="22.513508569990506" /><path d="M 143.74570117128098 25.957352633546492 a86.0,86.0 0 0,1 28.547481713284135,27.462654790039103" fill="none" id="id14" stroke="none" /><text fill="#e1ed5e" style="font-size:6.75px; font-family:Arial;" text-anchor="middle"><textPath startOffset="19.985693538727396" xlink:href="#id14">February</textPath></text><line stroke="#e1ed5e" stroke-width="0.3" x1="172.23445277983987" x2="176.4835382374775" y1="55.19839476539836" y2="52.563006222186495" /><path d="M 173.08426987136738 54.67131705675599 a86.0,86.0 0 0,1 12.851231095245387,41.99856678651699" fill="none" id="id15" stroke="none" /><text fill="#e1ed5e" style="font-size:6.75px; font-family:Arial;" text-anchor="middle"><textPath startOffset="22.20632615414155" xlink:href="#id15">March</textPath></text><path d="M 118.56541770881063 90.18545643968196 l 11.513358298523986 -6.08649685769187 a34.023166408707375,34.023166408707375 0 0,0 0.2692537767214651,0.520112594870029 l -11.616421508405567 5.887411540561496" fill="#ff6008" stroke="none" /><path d="M 118.73160827565052 90.50648371742162 l 23.89685229714025 -12.111354937962107 a47.79075340755904,47.79075340755904 0 0,0 0.3655764765874834,0.7369798690213872 l -24.10178878668114 11.69821548044177" fill="#dcff1b" stroke="none" /><path d="M 118.89224826269711 90.83032412892265 l 24.075377934848525 -11.685396521712422 a47.76139597583504,47.76139597583504 0 0,0 0.3526196712729782,0.7427069569287766 l -24.27295579996326 11.269247149143105" fill="#ddff1b" stroke="none" /><path d="M 119.04729006885535 91.15688171328212 l 23.696183049113955 -11.001467867057409 a47.12549303509911,47.12549303509911 0 0,0 0.335259022447797,0.7386988156962517 l -23.8820443885251 10.591947042519095" fill="#e5ff1a" stroke="none" /><path d="M 119.196687751892 91.48605970444005 l 21.034984576902183 -9.329244978114437 a44.01098407309401,44.01098407309401 0 0,0 0.30118034667949634,0.6951657649824134 l -21.19245563342436 8.96578006854542" fill="#ffef16" stroke="none" /><path d="M 119.34039704204932 91.81776055985345 l 26.5598527555089 -11.236536368313487 a49.83895851016027,49.83895851016027 0 0,0 0.3274616867895576,0.7929744485889192 l -26.749336129184655 10.777687349271266" fill="#c2ff1e" stroke="none" /><path d="M 119.47837535516314 92.15188598940014 l 22.29038405951453 -8.981112246240645 a45.031679065355235,45.031679065355235 0 0,0 0.2834989729570077,0.7214739634644021 l -22.44167658235324 8.596089277880457" fill="#fffd17" stroke="none" /><path d="M 119.61058180528143 92.48833698450437 l 21.443964122441024 -8.213924186623279 a43.963278246542515,43.963278246542515 0 0,0 0.26460745927568036,0.709016436306932 l -21.58217617021833 7.843584613287014" fill="#ffef16" stroke="none" /><path d="M 119.7369772167798 92.82701384747503 l 33.44219860231944 -12.153858458147676 a56.58225572919267,56.58225572919267 0 0,0 0.32480079090407993,0.9182555740307213 l -33.64645247403333 11.576405257690341" fill="#70ff27" stroke="none" /><path d="M 119.85752413597 93.16781622104841 l 24.23670852403627 -8.338886847084247 a46.63113485446103,46.63113485446103 0 0,0 0.25461200556695424,0.761257489017429 l -24.376657823374995 7.920456255144504" fill="#ebff1a" stroke="none" /><path d="M 120.18372546131832 94.20196356495316 l 22.262662284260028 -6.395237951123614 a44.16301363023615,44.16301363023615 0 0,0 0.20359828433642316,0.7324513549698101 l -22.369447339162814 6.011075292734852" fill="#fff116" stroke="none" /><path d="M 120.28053869075195 94.5502522615342 l 18.8644753146964 -5.0692258845417655 a40.53370113335663,40.53370113335663 0 0,0 0.1752670831324596,0.6753755672521952 l -18.94893872969916 4.74375389174072" fill="#ffbf11" stroke="none" /><path d="M 120.37134235888165 94.90015583598534 l 22.631830071329333 -5.665743792279793 a44.33024614309252,44.33024614309252 0 0,0 0.17894051568088395,0.7418239608979221 l -22.726003387271035 5.2753345997224645" fill="#fff417" stroke="none" /><path d="M 120.45610955862082 95.25157060432595 l 25.16696907927281 -5.841950319711528 a46.836112636676816,46.836112636676816 0 0,0 0.17553642645291725,0.7868953805541135 l -25.263799892727768 5.407876769607451" fill="#e9ff1a" stroke="none" /><path d="M 120.53481517161879 95.60439243477599 l 24.910599841470955 -5.332272056131007 a46.47491137850117,46.47491137850117 0 0,0 0.16071622793308937,0.7837094046083483 l -24.99869536531904 4.902686995359247" fill="#eeff19" stroke="none" /><path d="M 120.6074358757038 95.95851677861258 l 24.872143135416827 -4.877867861292113 a46.34594837485646,46.34594837485646 0 0,0 0.14679367646974337,0.7841776894464196 l -24.95242253579643 4.449012094383131" fill="#efff19" stroke="none" /><path d="M 120.67395015179393 96.31383870115 l 23.62191568344921 -4.2117829808868175 a44.99445803584802,44.99445803584802 0 0,0 0.1293872172710145,0.7636506805239469 l -23.690914762240446 3.804546512047033" fill="#fffd17" stroke="none" /><path d="M 120.73433829027371 96.67025291283417 l 20.622017370382824 -3.3117093639166675 a41.8862399520695,41.8862399520695 0 0,0 0.10819436492319583,0.7128656827346606 l -20.67596762874532 2.956244568789925" fill="#ffd213" stroke="none" /><path d="M 120.78858239683441 97.02765380044208 l 21.390059430084477 -3.058345232092927 a42.60759398871636,42.60759398871636 0 0,0 0.09755921854746526,0.7269294959482352 l -21.43953464768978 2.6896973940800275" fill="#ffdc14" stroke="none" /><path d="M 120.83666639777658 97.38593545837742 l 22.115225637023045 -2.7744662252640047 a43.28858155674273,43.28858155674273 0 0,0 0.08639091295325901,0.7401445841420843 l -22.15970690297989 2.3933779027970674" fill="#ffe615" stroke="none" /><path d="M 120.87857604477298 97.74499172005257 l 19.92580663517079 -2.152103613320442 a41.041689550152284,41.041689550152284 0 0,0 0.06981557702805137,0.70303333297247 l -19.959899337881073 1.8087947496435368" fill="#ffc612" stroke="none" /><path d="M 120.91429891909075 98.10471618934814 l 23.11912902382191 -2.0950886818981282 a44.21386489590095,44.21386489590095 0 0,0 0.06216367539936174,0.7585542946880521 l -23.151767183040768 1.6968204700023075" fill="#fff216" stroke="none" /><path d="M 120.96714384426684 98.82574320788733 l 25.279598238717757 -1.4157741347212927 a46.319212142393525,46.319212142393525 0 0,0 0.03773117091540813,0.7964453835519709 l -25.30022301786666 0.9804176445463219" fill="#f0ff19" stroke="none" /><path d="M 120.98425023603335 99.18683210126433 l 25.98803370636614 -1.0070712331188902 a47.007539068350894,47.007539068350894 0 0,0 0.024372973726876492,0.8088203410228965 l -26.00151837454866 0.5595807446709948" fill="#e7ff1a" stroke="none" /><line stroke="#e1ed5e" stroke-width="0.3" x1="184.98032266829074" x2="189.97916517819016" y1="98.17113171792111" y2="98.06355123074" /><path d="M 185.9800911702706 98.14961562048488 a86.0,86.0 0 0,1 -9.607161424134198,41.387399972396054" fill="none" id="id16" stroke="none" /><text fill="#e1ed5e" style="font-size:6.75px; font-family:Arial;" text-anchor="middle"><textPath startOffset="21.466115282336823" xlink:href="#id16">April</textPath></text><path d="M 120.99513854157772 99.54816195383933 l 26.194918097995714 -0.5637429154991261 a47.200983573817965,47.200983573817965 0 0,0 0.010489840684563505,0.8124497212294702 l -26.200740945797993 0.11275693620919315" fill="#e4ff1a" stroke="none" /><path d="M 120.99980553446 99.90962569577887 l 25.876239482274336 -0.11136041880161217 a46.87647910529732,46.87647910529732 0 0,0 -0.003472660266793638,0.8069239472260952 l -25.87432252471804 -0.33407300662816775" fill="#e8ff1a" stroke="none" /><path d="M 120.99824983174949 100.27111621757518 l 15.048099204154791 0.19429160861577813 a36.0493534375156,36.0493534375156 0 0,0 -0.013351886251571778,0.6204096888809414 l -15.042525255218212 -0.45329111328683436" fill="#ff7e0b" stroke="none" /><path d="M 120.9904718944345 100.63252640178507 l 26.617729313035834 0.8020980486164117 a47.62981177292925,47.62981177292925 0 0,0 -0.03174837035807913,0.8192843682296287 l -26.599978809826553 -1.2601596638600465" fill="#deff1b" stroke="none" /><path d="M 120.95626037817324 101.35467743843564 l 17.052007265129483 1.10229445069174 a38.08759798292476,38.08759798292476 0 0,0 -0.04792406718657634,0.6538858209121812 l -17.030506639278567 -1.3956534081006915" fill="#ff9c0e" stroke="none" /><path d="M 120.92983693683757 101.71520430193887 l 25.37464503563625 2.079457210136833 a46.45970842278696,46.45970842278696 0 0,0 -0.07217936876870419,0.7964933197528592 l -25.33509107059047 -2.515931918438263" fill="#eeff19" stroke="none" /><path d="M 120.89721153311464 102.0752229133903 l 24.51814980390572 2.434804576025531 a45.63874881421938,45.63874881421938 0 0,0 -0.08436148530188542,0.7810825804003124 l -24.472606017102784 -2.8564834783106345" fill="#f9ff18" stroke="none" /><path d="M 120.8583938346157 102.4346265915055 l 14.95932888498364 1.7460778707714257 a36.06088671426432,36.06088671426432 0 0,0 -0.07727073701725144,0.6159238013838176 l -14.92705663871954 -2.0033194264426384" fill="#ff7e0b" stroke="none" /><path d="M 120.81339534386255 102.79330883721812 l 23.74903076482274 3.1872924342594624 a44.961955165010735,44.961955165010735 0 0,0 -0.10954862400794271,0.7661828211625197 l -23.6906480897982 -3.5956207274023915" fill="#fffc17" stroke="none" /><path d="M 120.76222939487914 103.15116336523771 l 22.126406032937012 3.358209697488581 a43.37979929102801,43.37979929102801 0 0,0 -0.11840257102481665,0.7372929227956133 l -22.065321707550908 -3.7385818499773995" fill="#ffe715" stroke="none" /><path d="M 120.64145759157962 103.86396538481128 l 11.422932545063091 2.138309068113648 a32.62134904388637,32.62134904388637 0 0,0 -0.10806997330511571,0.5510464656116146 l -11.384432638782313 -2.3346192607932075" fill="#ff4a06" stroke="none" /><path d="M 120.5718875245553 104.21870165774334 l 25.438311364554437 5.216665033567786 a46.9676968395826,46.9676968395826 0 0,0 -0.16923123477456922,0.7905919888877773 l -25.344746091055423 -5.653770841871732" fill="#e7ff1a" stroke="none" /><path d="M 120.41448212921028 104.9243191809786 l 23.324939651800523 5.626370877083469 a44.9939337959958,44.9939337959958 0 0,0 -0.18809325298311974,0.7513390465834464 l -23.224635084522344 -6.027037763064311" fill="#fffd17" stroke="none" /><path d="M 120.32669344350535 105.2749913415812 l 21.226877031522182 5.508598477233636 a42.930001497828144,42.930001497828144 0 0,0 -0.19177838205531633,0.7136787029371 l -21.128910573125086 -5.873168113346284" fill="#ffe115" stroke="none" /><path d="M 120.23288151984713 105.62410040840565 l 21.923416605146652 6.094015633003336 a43.75463078536123,43.75463078536123 0 0,0 -0.20795401536710484,0.7239152084967067 l -21.81526995289345 -6.470488317004624" fill="#ffec16" stroke="none" /><path d="M 120.13307415673323 105.97154293290107 l 24.47150084106398 7.2583360478045185 a46.52523840431375,46.52523840431375 0 0,0 -0.23433926790218523,0.7658342862836396 l -24.34293480065566 -7.678497306640216" fill="#edff1a" stroke="none" /><path d="M 120.02730092923936 106.31721596034902 l 19.773822433779667 6.237261182479507 a41.73421039492736,41.73421039492736 0 0,0 -0.22200165232531816,0.6832508305873409 l -19.663528530438104 -6.576710913044643" fill="#ffd013" stroke="none" /><path d="M 119.9155931802556 106.66101706037122 l 20.899987670667162 6.990260002593378 a43.037994907384295,43.037994907384295 0 0,0 -0.24103156280604437,0.7005505458879824 l -20.776565276917886 -7.348983251570661" fill="#ffe215" stroke="none" /><path d="M 119.79798401119884 107.00284435728193 l 12.765543188008754 4.51536439423423 a34.54059114284288,34.54059114284288 0 0,0 -0.20309166746089735,0.5588210444519707 l -12.68592725954263 -4.734433235692332" fill="#ff6709" stroke="none" /><path d="M 119.67450827220406 107.3425965602758 l 14.291498369978378 5.333638092538445 a36.25433121973139,36.25433121973139 0 0,0 -0.2232329722010946,0.5827908485717486 l -14.197571118183776 -5.5788525079433375" fill="#ff810b" stroke="none" /><path d="M 119.54520255179757 107.68017299344265 l 19.46127986871531 7.64719606611547 a41.90983074541914,41.90983074541914 0 0,0 -0.26961469383910874,0.6691615591685585 l -19.326762560618807 -7.981056993126842" fill="#ffd213" stroke="none" /><path d="M 119.41010516605496 108.01547362559984 l 15.550664164316794 6.421703406719646 a37.82442957711319,37.82442957711319 0 0,0 -0.25369208537604776,0.5996531503984384 l -15.437821097748436 -6.688431082784248" fill="#ff980e" stroke="none" /><path d="M 119.26925614724726 108.34839909993367 l 17.56832026086586 7.611469167900981 a40.14628788257027,40.14628788257027 0 0,0 -0.28018078114931155,0.6317336959256572 l -17.434698394985276 -7.912751200319326" fill="#ffba11" stroke="none" /><path d="M 119.12269723197855 108.67885076344098 l 22.30726743604587 10.124170386061055 a45.497204054121525,45.497204054121525 0 0,0 -0.32980139618357274,0.710362866869842 l -22.129691423022464 -10.506653320209727" fill="#fbff18" stroke="none" /><path d="M 118.97047184881838 109.00673069616215 l 20.76200649867808 9.857308913336787 a43.98319936092666,43.98319936092666 0 0,0 -0.330600227751812,0.6811343897216376 l -20.589253014311556 -10.213232259023702" fill="#ffef16" stroke="none" /><path d="M 118.81262510543309 109.33194174019688 l 22.304828417730267 11.064237880296332 a45.89824754106545,45.89824754106545 0 0,0 -0.35717869845904865,0.7047474576116058 l -22.11107104948495 -11.446539549610632" fill="#f5ff19" stroke="none" /><path d="M 118.64920377521936 109.65438752849418 l 23.403451839339883 12.115583929736944 a47.35353737081232,47.35353737081232 0 0,0 -0.38096482692750155,0.7206418822032966 l -23.191434504187487 -12.516640827026375" fill="#e2ff1b" stroke="none" /><line stroke="#e1ed5e" stroke-width="0.3" x1="174.80103733775053" x2="179.2010983576182" y1="140.37084112569926" y2="142.7455964860345" /><path d="M 175.68104954172406 140.8457921977663 a86.0,86.0 0 0,1 -30.038265399797805,32.042727171017184" fill="none" id="id17" stroke="none" /><text fill="#e1ed5e" style="font-size:6.75px; font-family:Arial;" text-anchor="middle"><textPath startOffset="22.206326154141568" xlink:href="#id17">May</textPath></text><path d="M 118.30583269289576 110.29060199501025 l 20.894185490653054 11.745641430322493 a44.96929452294174,44.96929452294174 0 0,0 -0.38512561211365726,0.6714989670546141 l -20.688907882387017 -12.103560243235423" fill="#fffc17" stroke="none" /><path d="M 118.12598468904814 110.60418214915192 l 10.026803503036042 5.8659461841094815 a32.61663088521644,32.61663088521644 0 0,0 -0.2876773242968545,0.4821637426903056 l -9.92434530304096 -6.037672020685892" fill="#ff4a06" stroke="none" /><path d="M 117.94076556474637 110.91462005526583 l 14.29241876035214 8.695076019862274 a37.7295421638624,37.7295421638624 0 0,0 -0.34232437673115756,0.5519358937451012 l -14.140629743953019 -8.939808244972648" fill="#ff970d" stroke="none" /><path d="M 117.55443506779139 111.5257021239791 l 17.031193880739036 11.1821580544791 a41.37405761645614,41.37405761645614 0 0,0 -0.3960027189269328,0.5919703344412929 l -16.836188056401383 -11.473665303126198" fill="#ffcb12" stroke="none" /><path d="M 117.35343817320211 111.8261652097733 l 18.364111977637684 12.514927590181728 a43.22305157521594,43.22305157521594 0 0,0 -0.4242838400666292,0.6112125162000706 l -18.14596723040892 -12.829181368568818" fill="#ffe515" stroke="none" /><path d="M 117.14729908036423 112.12312394758627 l 17.757287127433965 12.55438490982379 a42.747041789405365,42.747041789405365 0 0,0 -0.4299542400993802,0.5971688346375085 l -17.53855309495898 -12.85818734991243" fill="#ffde14" stroke="none" /><path d="M 116.71984013943494 112.70617746262583 l 18.796776694775392 14.284537317187363 a44.6086175046183,44.6086175046183 0 0,0 -0.4698629564451575,0.607361209369292 l -18.548106921112165 -14.605976520669907" fill="#fff817" stroke="none" /><path d="M 116.498646956653 112.99209946851258 l 18.84341696824184 14.838522711666055 a44.98449747865595,44.98449747865595 0 0,0 -0.4842947197684617,0.6042321266284868 l -18.585204336418524 -15.160682671872792" fill="#fffd17" stroke="none" /><path d="M 116.27256486870786 113.27417163493432 l 17.23897437049666 14.062509902434165 a43.24716660841779,43.24716660841779 0 0,0 -0.47552113157876424,0.5727958358979356 l -16.994357239024353 -14.357166995445871" fill="#ffe515" stroke="none" /><path d="M 116.0416608686014 113.55231037782055 l 13.308115082764033 11.242957173991028 a38.42153876878526,38.42153876878526 0 0,0 -0.43115825736576024,0.5015344600941538 l -13.112614315827495 -11.47036873324671" fill="#ffa10e" stroke="none" /><path d="M 115.80600337817218 113.82643327865902 l 7.18723729425848 6.28709576540951 a30.54902890808328,30.54902890808328 0 0,0 -0.3496280357092811,0.39281080450073613 l -7.077950408900861 -6.409880739651112" fill="#ff2a04" stroke="none" /><path d="M 115.07121518719521 114.62390073753431 l 14.787157883627069 14.34827426949202 a41.604198911578216,41.604198911578216 0 0,0 -0.503132207173789,0.50967026953918 l -14.537985051397744 -14.600685033011864" fill="#ffce13" stroke="none" /><path d="M 114.81725581225074 114.88116024355365 l 13.59512257535233 13.65375614338137 a40.26791152828399,40.26791152828399 0 0,0 -0.4953912790980701,0.48484463264045635 l -13.358081343878466 -13.885750878944398" fill="#ffbb11" stroke="none" /><path d="M 114.55890576462653 115.13401014063108 l 17.927683475254202 18.63586095678539 a46.859179190174245,46.859179190174245 0 0,0 -0.586106057291369,0.5541998600645517 l -17.604241583572026 -18.941695453595862" fill="#e8ff1a" stroke="none" /><path d="M 114.29624159901734 115.38237550388516 l 14.462908552603166 15.561704710543362 a42.24482001098407,42.24482001098407 0 0,0 -0.5369124520772804,0.49045679490122784 l -14.192896551059022 -15.808354272031172" fill="#ffd714" stroke="none" /><path d="M 114.0293411484842 115.62618273729858 l 12.996175329221423 14.475420365861387 a40.453492435967846,40.453492435967846 0 0,0 -0.5221537369716475,0.46073996310348897 l -12.745079239343188 -14.696983470737166" fill="#ffbe11" stroke="none" /><path d="M 113.75828350139079 115.86535959552629 l 12.730653958324206 14.680348963197796 a40.431474362174846,40.431474362174846 0 0,0 -0.529718782377348,0.4514378383455352 l -12.47606969936981 -14.897311191766278" fill="#ffbe11" stroke="none" /><path d="M 113.48314897796784 116.09983520530334 l 7.688740628681398 9.180901083297826 a32.975210944131014,32.975210944131014 0 0,0 -0.43830316152604687,0.3606936624086231 l -7.52956733861066 -9.311889864563627" fill="#ff5007" stroke="none" /><path d="M 112.63410532772338 116.77436683061366 l 19.971146424104344 26.51579415051395 a54.195391682061015,54.195391682061015 0 0,0 -0.7499997788980789,0.5548319064664091 l -19.511761674787703 -26.85563600572013" fill="#8cff24" stroke="none" /><path d="M 112.34349029814194 116.9893568818739 l 21.15969682168627 29.12382414802033 a56.99902641170303,56.99902641170303 0 0,0 -0.7987264672468501,0.5698701268776167 l -20.655243026590536 -29.483738536742166" fill="#6bff28" stroke="none" /><path d="M 112.04921762599082 117.19931262002967 l 16.105729406511873 22.989664859125988 a49.0698986469619,49.0698986469619 0 0,0 -0.6959586421071665,0.47868670013102144 l -15.707613879781823 -23.263492348622105" fill="#ccff1d" stroke="none" /><path d="M 111.7513745106137 117.40417183066458 l 13.518862438779058 20.021879536484995 a45.158545109591095,45.158545109591095 0 0,0 -0.6479720099815456,0.4294405153820146 l -13.172215730057548 -20.25161807295833" fill="#ffff18" stroke="none" /><path d="M 111.45004920935366 117.60387380957326 l 12.84350344809747 19.746239499864082 a44.55566927954466,44.55566927954466 0 0,0 -0.646520154831228,0.41263975185570073 l -12.501701491219311 -19.96439368054359" fill="#fff717" stroke="none" /><path d="M 111.1453310114006 117.79835938074945 l 14.328002174199828 22.880875556204867 a47.99677966947925,47.99677966947925 0 0,0 -0.7040003083078904,0.43245448897917615 l -13.932022665959629 -23.12411851201242" fill="#daff1c" stroke="none" /><line stroke="#e1ed5e" stroke-width="0.3" x1="143.8653032363475" x2="146.44561519142675" y1="172.8068346515853" y2="177.08958963109032" /><path d="M 144.38136562736335 173.6633856474863 a86.0,86.0 0 0,1 -40.68145358897372,12.25698825130547" fill="none" id="id18" stroke="none" /><text fill="#e1ed5e" style="font-size:6.75px; font-family:Arial;" text-anchor="middle"><textPath startOffset="21.466115282336833" xlink:href="#id18">June</textPath></text><path d="M 110.8373102113329 117.98757091392108 l 15.799563541411002 26.223828982300436 a51.615607369314496,51.615607369314496 0 0,0 -0.7649731128435657,0.45195959880927683 l -15.345822557539055 -26.491907153403464" fill="#acff21" stroke="none" /><path d="M 109.89434966115114 118.52300852407294 l 11.846642329825027 22.177855480343144 a46.14359179190174,46.14359179190174 0 0,0 -0.7038196305261835,0.36820516612127485 l -11.463131796772348 -22.378490065409135" fill="#f2ff19" stroke="none" /><path d="M 109.2508944713604 118.85261126421891 l 7.488148515499046 15.260270613667632 a37.99847720804833,37.99847720804833 0 0,0 -0.5896772551135636,0.2830809170822904 l -7.22435859238525 -15.386905807249484" fill="#ff9b0e" stroke="none" /><path d="M 108.59647513512805 119.15986991738527 l 10.09546107598554 22.50081782723939 a45.66181536771681,45.66181536771681 0 0,0 -0.7198896678974235,0.3155784747990343 l -9.706650733430363 -22.67126085533288" fill="#f8ff18" stroke="none" /><path d="M 107.59598834532513 119.57807347666477 l 8.493482300051374 21.891294849800094 a44.481227220530236,44.481227220530236 0 0,0 -0.7162108352566641,0.27080965416901687 l -8.115401244034434 -22.034252754075744" fill="#fff617" stroke="none" /><path d="M 106.2309692047433 120.05430185196036 l 6.555288211980058 21.09811880141708 a43.0930400918668,43.0930400918668 0 0,0 -0.7102656953926145,0.2139972276234523 l -6.191147542147198 -21.207831398146258" fill="#ffe315" stroke="none" /><path d="M 105.88484417918355 120.15858648285463 l 5.937437274598892 20.338744602602546 a42.18767786709272,42.18767786709272 0 0,0 -0.6988465819049867,0.19750102463617802 l -5.5864595245893 -20.437934420577243" fill="#ffd614" stroke="none" /><path d="M 105.53697534728816 120.25689768951611 l 7.23008062036551 26.45108461344848 a48.42141394977283,48.42141394977283 0 0,0 -0.8058927118107754,0.2128435898341022 l -6.773697465743238 -26.571619552586164" fill="#d4ff1c" stroke="none" /><path d="M 105.18746579009965 120.34920634021253 l 7.581770423210456 29.741499415857575 a51.69267062758999,51.69267062758999 0 0,0 -0.8641210584126932,0.21237993219694135 l -7.0686960800545515 -29.867600606368544" fill="#abff21" stroke="none" /><path d="M 104.83641907484287 120.43548508189849 l 7.147898509359484 30.202257309492158 a52.03657197064257,52.03657197064257 0 0,0 -0.8734211006818893,0.19878779890023135 l -6.626957259284732 -30.320821841970073" fill="#a7ff21" stroke="none" /><path d="M 104.48393922423573 120.51570834832081 l 9.363908629093203 42.843403718868366 a64.85476059713415,64.85476059713415 0 0,0 -1.0926746698199805,0.22898060093759387 l -8.625042497843843 -42.9982403005325" fill="#33ff50" stroke="none" /><path d="M 104.13013068566511 120.58985236759428 l 6.067450461581212 30.247931302815616 a51.8504668231065,51.8504668231065 0 0,0 -0.8765997581799144,0.16800242998018902 l -5.545883088829593 -30.347890931144274" fill="#a9ff21" stroke="none" /><path d="M 103.7750983002368 120.6578951692458 l 6.144312221749453 33.62258348505887 a55.17938988466724,55.17938988466724 0 0,0 -0.9358188790937619,0.16270410752391468 l -5.5646443711836415 -33.72336617110379" fill="#81ff25" stroke="none" /><path d="M 103.41894727170886 120.7198165907248 l 5.131152105144164 31.096276739172794 a52.51677567527085,52.51677567527085 0 0,0 -0.8931956585773023,0.13949879237328336 l -4.595120582958344 -31.179993838893186" fill="#a1ff22" stroke="none" /><path d="M 103.06178313531738 120.77559828337769 l 4.726204463258642 32.0694578924154 a53.41584702181836,53.41584702181836 0 0,0 -0.9107946474310117,0.12622783895420986 l -4.1734812246408 -32.14606029686221" fill="#96ff23" stroke="none" /><path d="M 101.98527174616119 120.90594882070398 l 0.6545875785934646 6.893149234206854 a27.924159968046332,27.924159968046332 0 0,0 -0.4789068992755265,0.041322102404631154 l -0.5358363615763965 -6.903395588890149" fill="#ff0000" stroke="none" /><path d="M 101.62511606390274 120.93702456842531 l 3.9410423613701884 50.77403551538041 a71.92675620350491,71.92675620350491 0 0,0 -1.235212703969474,0.08518750001689157 l -3.066466896621784 -50.83435135991359" fill="#3cffa8" stroke="none" /><path d="M 101.26447882468166 120.96189622390904 l 1.9442884998612597 32.231440311934016 a53.290029457286934,53.290029457286934 0 0,0 -0.9161112604132251,0.04735248796766322 l -1.389189171034555 -32.26013260666388" fill="#97ff23" stroke="none" /><path d="M 100.90346689309514 120.98055641714683 l 1.3089421490755828 30.396614215026553 a51.4247840631085,51.4247840631085 0 0,0 -0.8847013286441325,0.0304709025710409 l -0.7855204687567979 -30.414641916023687" fill="#aeff20" stroke="none" /><line stroke="#e1ed5e" stroke-width="0.3" x1="102.19456741930631" x2="102.32365962044197" y1="184.97166512339345" y2="189.96999836594603" /><path d="M 102.22038585953345 185.97133177190398 a86.0,86.0 0 0,1 -42.740103519485714,-10.115201625700543" fill="none" id="id19" stroke="none" /><text fill="#e1ed5e" style="font-size:6.75px; font-family:Arial;" text-anchor="middle"><textPath startOffset="22.20632615414155" xlink:href="#id19">July</textPath></text><path d="M 100.54218724476979 120.99299961872073 l 0.7468643508511976 28.917912001622902 a49.927555045184484,49.927555045184484 0 0,0 -0.8593252846872558,0.014794064079269866 l -0.2489793762712739 -28.926483542981334" fill="#c1ff1e" stroke="none" /><path d="M 100.18074693466247 120.99922214144158 l 0.23464433679295138 27.261035224459196 a48.26204503469969,48.26204503469969 0 0,0 -0.8307825429107949,0.0 l 0.23464433679293262 -27.261035224459196" fill="#d6ff1c" stroke="none" /><path d="M 99.81925306533755 120.99922214144158 l -0.2644559848361398 30.72455963128191 a51.72569773827949,51.72569773827949 0 0,0 -0.8902739157638982,-0.01532687282989352 l 0.793289590492706 -30.715455281172854" fill="#aaff21" stroke="none" /><path d="M 99.09653310690486 120.98055641714683 l -0.972121174950986 22.574865013027676 a43.595786110140295,43.595786110140295 0 0,0 -0.7494570929835304,-0.0387383711032825 l 1.3605663363480054 -22.55478683516219" fill="#ffea16" stroke="none" /><path d="M 98.73552117531835 120.96189622390904 l -1.185058266418654 19.64530201303093 a40.68101253182885,40.68101253182885 0 0,0 -0.6986232403903098,-0.04818114897239681 l 1.5230442675878937 -19.621992519542246" fill="#ffc112" stroke="none" /><path d="M 98.37488393609728 120.93702456842531 l -1.7208185152169753 22.16999778118969 a43.23668181137351,43.23668181137351 0 0,0 -0.7415207922079572,-0.06398153410847358 l 2.1021836251664743 -22.137091994802553" fill="#ffe515" stroke="none" /><path d="M 98.01472825383883 120.90594882070398 l -2.4451879128289016 25.749106368662765 a46.864945828548606,46.864945828548606 0 0,0 -0.8024336610376549,-0.08317552991983657 l 2.8880541704721496 -25.70320147028717" fill="#e8ff1a" stroke="none" /><path d="M 97.65516085044442 120.86867818915974 l -2.9981020410888677 26.682609203963846 a47.85051675071147,47.85051675071147 0 0,0 -0.8177256311738327,-0.09901518598195322 l 3.4569550953140897 -26.62704848925654" fill="#dcff1b" stroke="none" /><path d="M 97.2962882734958 120.8252237178851 l -2.5311272019480193 19.495898812831612 a40.65951869788806,40.65951869788806 0 0,0 -0.6932862448484839,-0.09608315629734525 l 2.8663420379833346 -19.44944109104166" fill="#ffc111" stroke="none" /><path d="M 96.93821686468263 120.77559828337769 l -4.227321380623031 28.68430810971017 a49.99413350641569,49.99413350641569 0 0,0 -0.8502910246885457,-0.13279797093822104 l 4.7204482689200935 -28.607291831424842" fill="#c0ff1e" stroke="none" /><path d="M 96.58105272829116 120.7198165907248 l -4.147835626104811 25.13709238294583 a46.477008337910036,46.477008337910036 0 0,0 -0.7882302058308938,-0.13704392487497322 l 4.579914803407755 -25.06196987954985" fill="#eeff19" stroke="none" /><path d="M 95.86986931433489 120.58985236759428 l -4.6729720172349944 23.296067673285627 a44.76012282190824,44.76012282190824 0 0,0 -0.7541196972314527,-0.15803311472333087 l 5.073283175895834 -23.212178577835754" fill="#fffa17" stroke="none" /><path d="M 95.51606077576429 120.51570834832081 l -6.718856857444817 30.741297066743435 a52.4669728893105,52.4669728893105 0 0,0 -0.880645274563471,-0.200431997355783 l 7.247022281401151 -30.621088335809965" fill="#a1ff22" stroke="none" /><path d="M 95.16358092515715 120.4354850818985 l -6.710594852434983 28.35450337852616 a50.13777522592242,50.13777522592242 0 0,0 -0.8381286334925381,-0.20599162654412329 l 7.197676770670732 -28.234790493668005" fill="#beff1f" stroke="none" /><path d="M 94.81253420990036 120.34920634021253 l -9.627464094542105 37.76627380689901 a59.97408757301912,59.97408757301912 0 0,0 -0.9981674662109942,-0.2636251000292489 l 10.27612200356459 -37.59495735756617" fill="#4aff2c" stroke="none" /><path d="M 94.46302465271185 120.25689768951611 l -8.59974182951919 31.461958825975703 a53.616106645364226,53.616106645364226 0 0,0 -0.8881605899762525,-0.2510030543236324 l 9.140033587600055 -31.30926697831355" fill="#93ff23" stroke="none" /><path d="M 94.11515582081647 120.15858648285463 l -8.024119753033222 27.486694135841038 a49.63398072794448,49.63398072794448 0 0,0 -0.8180744213377205,-0.2464791123822486 l 8.49606914881119 -27.34449965435306" fill="#c5ff1e" stroke="none" /><path d="M 93.76903079525671 120.05430185196036 l -8.032378520239124 25.852116764026686 a48.07122172849368,48.07122172849368 0 0,0 -0.7880902645962364,-0.2523216156534247 l 8.4761901299263 -25.710022301713554" fill="#d9ff1c" stroke="none" /><line stroke="#e1ed5e" stroke-width="0.3" x1="58.666819895761336" x2="56.23545636021788" y1="174.27360380694188" y2="178.64263932499728" /><path d="M 58.180547188652646 175.14741091055294 a86.0,86.0 0 0,1 -31.652253787137756,-30.449443065178592" fill="none" id="id20" stroke="none" /><text fill="#e1ed5e" style="font-size:6.75px; font-family:Arial;" text-anchor="middle"><textPath startOffset="22.20632615414155" xlink:href="#id20">August</textPath></text><line stroke="#e1ed5e" stroke-width="0.3" x1="26.63291911575756" x2="22.317208475507996" y1="142.92168965132927" y2="145.44649492493687" /><path d="M 25.769776987707644 143.4266507060508 a86.0,86.0 0 0,1 -11.730757126820373,-40.83630448921669" fill="none" id="id21" stroke="none" /><text fill="#e1ed5e" style="font-size:6.75px; font-family:Arial;" text-anchor="middle"><textPath startOffset="21.46611528233685" xlink:href="#id21">September</textPath></text><path d="M 81.87401531095188 110.60418214915194 l -11.418221020606138 6.679962363365623 a34.22866843077538,34.22866843077538 0 0,0 -0.29314084245890926,-0.5111157677422593 l 11.531513859217425 -6.4824267497650565" fill="#ff6309" stroke="none" /><path d="M 81.69416730710424 110.29060199501025 l -15.657158113834795 8.801652742349619 a38.961505816565975,38.961505816565975 0 0,0 -0.3236097970333838,-0.5874457804352146 l 15.806344320319695 -8.53083644351658" fill="#ffa90f" stroke="none" /><path d="M 81.51974371655577 109.97397251340807 l -16.248766951899487 8.769616203873028 a39.46425183483949,39.46425183483949 0 0,0 -0.3174945886798842,-0.600580110822595 l 16.397314048804258 -8.488621077964305" fill="#ffb010" stroke="none" /><path d="M 81.35079622478065 109.6543875284942 l -16.185020950758922 8.378720416099176 a39.22519846222977,39.22519846222977 0 0,0 -0.30524924336167975,-0.6022857161558242 l 16.326848863906868 -8.098880488240667" fill="#ffad10" stroke="none" /><path d="M 81.18737489456691 109.33194174019688 l -16.81761708087171 8.342324472426242 a39.773029107793704,39.773029107793704 0 0,0 -0.29895443424920126,-0.6159346819318433 l 16.958724771735632 -8.051600834529113" fill="#ffb410" stroke="none" /><path d="M 81.02952815118164 109.00673069616217 l -12.018389200142611 5.706046522722142 a34.30415896949424,34.30415896949424 0 0,0 -0.2486649401485122,-0.5356021588082948 l 12.114828757130951 -5.49832429663502" fill="#ff6409" stroke="none" /><path d="M 80.87730276802145 108.67885076344099 l -12.131536890415667 5.505907295704379 a34.32250736432174,34.32250736432174 0 0,0 -0.23953664041036435,-0.540091888299134 l 12.224514615557311 -5.296267070912549" fill="#ff6409" stroke="none" /><path d="M 80.73074385275274 108.34839909993369 l -16.19304432784424 7.015631307131355 a38.64748614508962,38.64748614508962 0 0,0 -0.25921240490094277,-0.6127015550792627 l 16.31140771393749 -6.735855226385933" fill="#ffa40f" stroke="none" /><path d="M 80.58989483394504 108.01547362559985 l -14.592708751832621 6.026112229980654 a36.78800738928554,36.78800738928554 0 0,0 -0.23666493452249412,-0.587382958734809 l 14.694276300612502 -5.77402990340304" fill="#ff890c" stroke="none" /><path d="M 80.45479744820244 107.68017299344265 l -10.41617115372147 4.092973515003591 a32.19147236507065,32.19147236507065 0 0,0 -0.19821626310052878,-0.5174801152090247 l 10.485081696415508 -3.913069832961408" fill="#ff4406" stroke="none" /><path d="M 80.32549172779594 107.34259656027581 l -12.534161743138636 4.6777938044395295 a34.37860102850866,34.37860102850866 0 0,0 -0.20213919845722186,-0.5562002588230278 l 12.612825202601083 -4.461345748610385" fill="#ff6509" stroke="none" /><path d="M 80.20201598880116 107.00284435728193 l -9.932599847048355 3.513309777030679 a31.535648309950574,31.535648309950574 0 0,0 -0.17661339968570805,-0.5133212103865232 l 9.991604077677293 -3.3418158635548587" fill="#ff3905" stroke="none" /><path d="M 80.0844068197444 106.66101706037122 l -11.829140459778865 3.9564026890362123 a33.47323880373459,33.47323880373459 0 0,0 -0.1780581027600346,-0.5480064915252204 l 11.895490813555147 -3.7521972975331885" fill="#ff5708" stroke="none" /><path d="M 79.97269907076064 106.31721596034903 l -10.73158955629644 3.385067666605719 a32.25280842777972,32.25280842777972 0 0,0 -0.16245160205465428,-0.5309012349014021 l 10.788267930857224 -3.199839459152269" fill="#ff4406" stroke="none" /><path d="M 79.67330655649465 105.27499134158121 l -15.6593379516345 4.063763363153331 a37.17804183933296,37.17804183933296 0 0,0 -0.15541959191230312,-0.6208240123225264 l 15.726968857841861 -3.7936115114334124" fill="#ff8f0d" stroke="none" /><path d="M 79.58551787078972 104.9243191809786 l -12.812943973553473 3.090699307208648 a34.18043836437166,34.18043836437166 0 0,0 -0.13304236610234668,-0.5731430311266903 l 12.864246905586375 -2.8696876187333835" fill="#ff6209" stroke="none" /><path d="M 79.4281124754447 104.21870165774334 l -10.720409208524934 2.1984471792249303 a31.94350691497329,31.94350691497329 0 0,0 -0.1058243770031883,-0.5395962184474589 l 10.756663518503789 -2.0135872337095164" fill="#ff4006" stroke="none" /><path d="M 79.35854240842038 103.8639653848113 l -11.63420114590556 2.177857368272741 a32.83628738329423,32.83628738329423 0 0,0 -0.0992180597544205,-0.5564675702499983 l 11.669965647999168 -1.9772710472895292" fill="#ff4d07" stroke="none" /><path d="M 79.29508885075956 103.50808413554451 l -12.936822136760169 2.191917665099194 a34.121199261071446,34.121199261071446 0 0,0 -0.09313177527302083,-0.5799316535263318 l 12.972635666394481 -1.9689067818796486" fill="#ff6109" stroke="none" /><path d="M 79.23777060512086 103.15116336523772 l -13.572313618610645 2.0599222098485943 a34.727744770083376,34.727744770083376 0 0,0 -0.08461323891498364,-0.5917847958992047 l 13.605760908542226 -1.8259919419689892" fill="#ff6a09" stroke="none" /><path d="M 79.18660465613746 102.79330883721812 l -13.984016233579224 1.8767565541187423 a35.10939138249538,35.10939138249538 0 0,0 -0.07523188683209565,-0.5996721593655118 l 14.014249629658169 -1.635766640465822" fill="#ff700a" stroke="none" /><path d="M 79.1416061653843 102.43462659150553 l -14.61618440605279 1.7060254736522116 a35.7154126516551,35.7154126516551 0 0,0 -0.06601857714654594,-0.611250032019411 l 14.643385284700388 -1.4541791197480185" fill="#ff790b" stroke="none" /><path d="M 79.07016306316243 101.71520430193888 l -20.584472160382184 1.6869015897819677 a41.65347745768635,41.65347745768635 0 0,0 -0.052410867525219305,-0.7151046467534545 l 20.61045958657174 -1.3323238065317524" fill="#ffcf13" stroke="none" /><path d="M 79.04373962182676 101.35467743843564 l -15.089156175736449 0.975409689869669 a36.120650057416746,36.120650057416746 0 0,0 -0.03476810218928012,-0.6208078204796049 l 15.10371062881326 -0.7155301530546264" fill="#ff7f0b" stroke="none" /><path d="M 79.0235259727143 100.99374915477108 l -12.791260948237754 0.6059790954014964 a33.805606870038446,33.805606870038446 0 0,0 -0.022533637802444266,-0.5814930657122777 l 12.799796718891399 -0.385708782675222" fill="#ff5c08" stroke="none" /><path d="M 79.0095281055655 100.63252640178507 l -15.640411530907215 0.47130780469521544 a36.64751110889211,36.64751110889211 0 0,0 -0.013573430674069322,-0.6307039876522856 l 15.646207024266293 -0.20201400125280097" fill="#ff870c" stroke="none" /><line stroke="#e1ed5e" stroke-width="0.3" x1="15.007084014347285" x2="10.007500721073583" y1="101.09737516637583" y2="101.16192664675087" /><path d="M 14.007167355692545 101.11028546245083 a86.0,86.0 0 0,1 10.666146001902534,-42.60595125391555" fill="none" id="id22" stroke="none" /><text fill="#e1ed5e" style="font-size:6.75px; font-family:Arial;" text-anchor="middle"><textPath startOffset="22.20632615414155" xlink:href="#id22">October</textPath></text><path d="M 79.08570108090925 98.10471618934814 l -14.185468611306005 -1.2855075424487215 a35.24359678466224,35.24359678466224 0 0,0 0.05995250373546184,-0.6037135309252224 l 14.161238981888314 1.529496604078374" fill="#ff720a" stroke="none" /><path d="M 79.16333360222342 97.38593545837743 l -14.933343042931943 -1.8734629518558623 a36.05040191722003,36.05040191722003 0 0,0 0.08254512189300361,-0.6150570365779511 l 14.898881921981104 2.130238330498473" fill="#ff7e0b" stroke="none" /><line stroke="#e1ed5e" stroke-width="0.3" x1="26.266209847984243" x2="21.928928074336255" y1="57.711370442889674" y2="55.22380399835377" /><path d="M 25.398753493254645 57.213857153982495 a86.0,86.0 0 0,1 29.58750427330803,-30.492523968695096" fill="none" id="id23" stroke="none" /><text fill="#e1ed5e" style="font-size:6.75px; font-family:Arial;" text-anchor="middle"><textPath startOffset="21.46611528233685" xlink:href="#id23">November</textPath></text><path d="M 83.6137871275137 86.86637796730984 l -18.703141069344912 -14.990650221645105 a44.96929452294174,44.96929452294174 0 0,0 0.4893119813691909,-0.5998386322586926 l 18.44233059589933 15.310373023511879" fill="#fffc17" stroke="none" /><path d="M 85.05521093208273 85.24692304244772 l -19.51463082968568 -19.26429668028078 a48.42141394977283,48.42141394977283 0 0,0 0.5906587028195645,-0.5881222266389398 l 19.1801363266988 19.59735475756983" fill="#d4ff1c" stroke="none" /><path d="M 85.31137513191541 84.99185889309783 l -20.6116703894329 -21.060028452745485 a50.46804633281742,50.46804633281742 0 0,0 0.626084368183015,-0.6022926661460591 l 20.246102777637457 21.41170420565386" fill="#baff1f" stroke="none" /><line stroke="#e1ed5e" stroke-width="0.3" x1="56.762969772571076" x2="54.21961505331055" y1="26.818313649435495" y2="22.513508569990535" /><path d="M 56.25429882871897 25.957352633546506 a86.0,86.0 0 0,1 42.265352541879196,-11.944610805530505" fill="none" id="id24" stroke="none" /><text fill="#e1ed5e" style="font-size:6.75px; font-family:Arial;" text-anchor="middle"><textPath startOffset="22.20632615414155" xlink:href="#id24">December</textPath></text><path d="M 96.75951476605007 79.25152402106235 l -2.1329540706864427 -13.657073896266635 a34.822632183334164,34.822632183334164 0 0,0 0.5930311167563783,-0.08739737105216529 l 1.8975539735014157 13.69176575147977" fill="#ff6c09" stroke="none" /><path d="M 98.91598698831166 79.02799685794201 l -1.712209078724462 -33.125482620307885 a54.16970392930251,54.16970392930251 0 0,0 0.9316135800392216,-0.040117240457716204 l 1.1417546662959164 33.15004758728979" fill="#8dff24" stroke="none" /><path d="M 99.63851952072746 79.00311137660856 l -1.0844414378176228 -62.990665870174325 a84.0,84.0 0 0,0 1.445921917090143,-0.012445506434235476 l 1.543054966925665e-14 63.0" fill="#4dd2ff" stroke="none" /></svg>