<?xml version="1.0" encoding="utf-8" ?>
<svg baseProfile="full" height="200mm" version="1.1" viewBox="0,0,200,200" width="200mm" xmlns="http://www.w3.org/2000/svg" xmlns:ev="http://www.w3.org/2001/xml-events" xmlns:xlink="http://www.w3.org/1999/xlink"><defs /><rect fill="#1a1a1a" height="200" width="200" x="0" y="0" /><text alignment-baseline="middle" fill="#e1ed5e" style="dominant-baseline: central; font-size:9.0px; font-family:Arial;" text-anchor="middle" x="100.0" y="100.0">2020</text><line stroke="#e1ed5e" stroke-width="0.3" x1="100.0" x2="100.0" y1="15.0" y2="10.0" /><path d="M 100.0 14.0 a86.0,86.0 0 0,1 42.35913384403234,11.155469271406648" fill="none" id="id37" stroke="none" /><text fill="#e1ed5e" style="font-size:6.75px; font-family:Arial;" text-anchor="middle"><textPath startOffset="22.145653131862478" xlink:href="#id37">January</textPath></text><path d="M 100.0 79.0 l 0.0 -8.89316697761194 a29.89316697761194,29.89316697761194 0 0,0 0.5131559617502156,0.004404826758164938 l -0.15266303690136088 8.89185654904821" fill="#ff5608" stroke="none" /><path d="M 100.36049292484886 79.00309439819443 l 0.13272327199565856 -7.730465207948338 a28.73160447761194,28.73160447761194 0 0,0 0.49307084376746735,0.012699755892757321 l -0.2654074298338673 7.727047734705535" fill="#ff4606" stroke="none" /><path d="M 100.72087961077811 79.0123766808444 l 0.3536075881824282 -10.294899110209686 a31.30097014925373,31.30097014925373 0 0,0 0.5368477674268282,0.02305455304708052 l -0.5302811162100927 10.287311988736775" fill="#ff6a09" stroke="none" /><line stroke="#e1ed5e" stroke-width="0.3" x1="143.13028292997686" x2="145.6673583964461" y1="26.7553504044142" y2="22.446841604673864" /><path d="M 143.63769802327073 25.89364864446614 a86.0,86.0 0 0,1 29.32050498858742,28.57503671076993" fill="none" id="id38" stroke="none" /><text fill="#e1ed5e" style="font-size:6.75px; font-family:Arial;" text-anchor="middle"><textPath startOffset="20.669276256404974" xlink:href="#id38">February</textPath></text><path d="M 110.65571695917076 81.90426304109057 l 4.144696175807304 -7.038600223653421 a29.168255597014927,29.168255597014927 0 0,0 0.4292834453998854,0.2577723746474157 l -4.264912377764624 6.966413848470084" fill="#ff4c07" stroke="none" /><line stroke="#e1ed5e" stroke-width="0.3" x1="172.87174338648825" x2="177.1583165268699" y1="56.24261187166439" y2="53.66864786411523" /><path d="M 173.72905801456457 55.72781907015455 a86.0,86.0 0 0,1 12.242430191666344,42.057860355516425" fill="none" id="id39" stroke="none" /><text fill="#e1ed5e" style="font-size:6.75px; font-family:Arial;" text-anchor="middle"><textPath startOffset="22.145653131862474" xlink:href="#id39">March</textPath></text><path d="M 120.51834098615036 95.52812308129327 l 10.172943696300365 -2.2171457303246593 a31.41174906716418,31.41174906716418 0 0,0 0.1103035372963451,0.5278423562930135 l -10.209504944421075 2.0421869227462417" fill="#ff6c09" stroke="none" /><path d="M 120.592083275326 95.88100663000786 l 7.354946609411913 -1.4711953091756427 a28.500643656716417,28.500643656716417 0 0,0 0.09184496326642978,0.48057165779727706 l -7.3791178649605 1.344721086345051" fill="#ff4206" stroke="none" /><path d="M 120.82617615685814 97.30363454192243 l 10.864969475265374 -1.4066878228399837 a31.95565298507463,31.95565298507463 0 0,0 0.06576460258214652,0.5446252505428296 l -10.887516164107184 1.219968895373741" fill="#ff730a" stroke="none" /><path d="M 120.86939407059847 97.66154086499901 l 10.959644060591854 -1.2280509766192433 a32.028232276119404,32.028232276119404 0 0,0 0.05653380683415377,0.5469132977851558 l -10.979110259907674 1.039733156551156" fill="#ff740a" stroke="none" /><path d="M 120.93736805541906 98.37931529534042 l 10.941434954744436 -0.8469362639681142 a31.974165111940298,31.974165111940298 0 0,0 0.03766258047254973,0.5476056542706856 l -10.95436149638205 0.6589871855430943" fill="#ff740a" stroke="none" /><path d="M 120.96210409425399 98.7389718711861 l 11.112163903136373 -0.6684801864754903 a32.132252798507466,32.132252798507466 0 0,0 0.0283963590057092,0.5508817785624843 l -11.122001851598656 0.4776266145362753" fill="#ff760a" stroke="none" /><path d="M 120.98066250479742 99.09900007780936 l 11.144900522429449 -0.47860998198866617 a32.15517257462687,32.15517257462687 0 0,0 0.01894906310863677,0.5516812971665561 l -11.151474272534934 0.2872224202579901" fill="#ff760a" stroke="none" /><path d="M 120.99303781780057 99.45929381324524 l 14.324810851999011 -0.3689563139451872 a35.32956156716418,35.32956156716418 0 0,0 0.010411400397501682,0.6064118773497653 l -14.329033683995178 0.12299752062635544" fill="#ffa20f" stroke="none" /><line stroke="#e1ed5e" stroke-width="0.3" x1="184.99686870605535" x2="189.99668451229388" y1="99.2704041080226" y2="99.22748670261217" /><path d="M 185.99683186730306 99.26182062694052 a86.0,86.0 0 0,1 -10.086455211305974,41.156179273409016" fill="none" id="id40" stroke="none" /><text fill="#e1ed5e" style="font-size:6.75px; font-family:Arial;" text-anchor="middle"><textPath startOffset="21.40746469413373" xlink:href="#id40">April</textPath></text><path d="M 120.99922638620191 99.81974689727618 l 14.659007535185077 -0.12582994927876484 a35.65954757462686,35.65954757462686 0 0,0 0.0,0.6121661040051817 l -14.659007535185077 -0.12582994927876306" fill="#ffa60f" stroke="none" /><path d="M 120.99922638620191 100.18025310272382 l 14.9725267686843 0.12852113482829186 a35.97307835820896,35.97307835820896 0 0,0 -0.01060104076315424,0.6174574779191755 l -14.968114296322478 -0.38552552871653845" fill="#ffab0f" stroke="none" /><path d="M 120.93736805541906 101.62068470465957 l 14.907034964046938 1.1538987848954227 a35.95162779850746,35.95162779850746 0 0,0 -0.05291117016052676,0.6149080008480053 l -14.88503017118867 -1.4096278331190852" fill="#ffaa0f" stroke="none" /><path d="M 120.9064616781168 101.97986365728391 l 14.56938550490106 1.3797359550471264 a35.63457089552239,35.63457089552239 0 0,0 -0.06289944228759377,0.608495046358219 l -14.5435536701318 -1.629635523688277" fill="#ffa60f" stroke="none" /><path d="M 120.86939407059847 102.33845913500097 l 14.343230848316075 1.6071889336704037 a35.432994402985074,35.432994402985074 0 0,0 -0.07292095693666807,0.6038901305888491 l -14.313527805119742 -1.8531727411826613" fill="#ffa30f" stroke="none" /><path d="M 120.35273937422433 105.17358676015961 l 14.833672608935016 3.770661570565768 a36.3054151119403,36.3054151119403 0 0,0 -0.15872471481081096,0.602703595469554 l -14.766758413319476 -4.024745670408125" fill="#ffaf10" stroke="none" /><path d="M 120.26092885502905 105.52220625578681 l 11.25190305961635 3.066756213888842 a32.662346082089556,32.662346082089556 0 0,0 -0.1520844501089838,0.5396940608201282 l -11.197600117432787 -3.259458198611979" fill="#ff7d0b" stroke="none" /><path d="M 120.16314734710363 105.8691983318838 l 29.54079770958703 8.598895681061935 a51.76686100746269,51.76686100746269 0 0,0 -0.25568806312164954,0.8511024040963097 l -29.38883332646175 -9.104735688748969" fill="#90ff24" stroke="none" /><path d="M 120.05942366710727 106.21446072829308 l 14.236483598218488 4.410499010257738 a35.90402518656717,35.90402518656717 0 0,0 -0.18744514314618535,0.5871692411519841 l -14.158673739295047 -4.6542372851011065" fill="#ffaa0f" stroke="none" /><path d="M 119.94978838288452 106.5578916946017 l 14.002629918781526 4.602942581874205 a35.73976679104477,35.73976679104477 0 0,0 -0.19659352828426319,0.5811938339917047 l -13.9215509689249 -4.8426380903400705" fill="#ffa70f" stroke="none" /><path d="M 119.83427380445688 106.89939002012753 l 14.034783949972732 4.882026399037068 a35.85965485074627,35.85965485074627 0 0,0 -0.207234362617593,0.5796713951463658 l -13.948909417311196 -5.122232750564355" fill="#ffa90f" stroke="none" /><path d="M 119.71291397450082 107.23885506374661 l 14.367073282777758 5.275788314136743 a36.30512126865672,36.30512126865672 0 0,0 -0.21985225932232777,0.583184237872171 l -14.27439033964099 -5.521640832203073" fill="#ffaf10" stroke="none" /><path d="M 119.58574465831526 107.57618678355244 l 17.320503472250703 6.699942829859586 a39.57118936567164,39.57118936567164 0 0,0 -0.2505069689256569,0.6314412049564759 l -17.20293782835892 -6.996285052029625" fill="#ffda14" stroke="none" /><path d="M 119.4528033332814 107.91128576633889 l 16.98218843232406 6.9065081944293345 a39.33288246268657,39.33288246268657 0 0,0 -0.25973591702184473,0.6232716473118753 l -16.86112667076573 -7.1970123511824875" fill="#ffd714" stroke="none" /><path d="M 119.31412917781788 108.2440532568976 l 13.67078205867422 5.8352439458978385 a35.8640625,35.8640625 0 0,0 -0.24655026086790086,0.5641552464609403 l -13.568597915789354 -6.069061262134624" fill="#ffa90f" stroke="none" /><path d="M 119.16976305983485 108.57439118712176 l 13.315117140254687 5.955682535383268 a35.58638059701492,35.58638059701492 0 0,0 -0.25421475853013537,0.5555051258477576 l -13.210917916869494 -6.1833766434457145" fill="#ffa50f" stroke="none" /><path d="M 118.8641267826498 109.22738970284198 l 13.573196745579555 6.63933068982565 a36.11000932835821,36.11000932835821 0 0,0 -0.2771530684509491,0.5544917943821666 l -13.457223763916872 -6.871354340371562" fill="#ffac10" stroke="none" /><path d="M 118.70294669586154 109.54985784667822 l 13.620002208573947 6.954470174055802 a36.292779850746264,36.292779850746264 0 0,0 -0.2880815978851404,0.5524344489272497 l -13.498612541713857 -7.187250866087555" fill="#ffaf10" stroke="none" /><path d="M 118.5362547648365 109.86951160357373 l 13.360368738686933 7.1136438275888905 a36.13616138059702,36.13616138059702 0 0,0 -0.29623848708192235,0.5450454501945624 l -13.236284901989672 -7.341944111258056" fill="#ffad10" stroke="none" /><line stroke="#e1ed5e" stroke-width="0.3" x1="174.33088141563837" x2="178.70328620479359" y1="141.23008692659167" y2="143.65538615756765" /><path d="M 175.20536237346943 141.71514677278685 a86.0,86.0 0 0,1 -30.301960400862466,31.631185727798858" fill="none" id="id41" stroke="none" /><text fill="#e1ed5e" style="font-size:6.75px; font-family:Arial;" text-anchor="middle"><textPath startOffset="22.145653131862474" xlink:href="#id41">May</textPath></text><path d="M 118.36410011445183 110.18625677009912 l 13.302323713501995 7.378574726788588 a36.21167910447761,36.21167910447761 0 0,0 -0.30618980978608373,0.5410080553510911 l -13.173700538694533 -7.605839552238802" fill="#ffae10" stroke="none" /><path d="M 117.423217284605 111.72311816256416 l 12.703914591653197 8.547760694958798 a36.3118796641791,36.3118796641791 0 0,0 -0.3524158929088933,0.5141853198306333 l -12.555308961928983 -8.764580749859476" fill="#ffaf10" stroke="none" /><path d="M 117.21940702142032 112.02048342749411 l 15.160386789106177 10.58312739376899 a39.48891324626866,39.48891324626866 0 0,0 -0.39279227393360766,0.5525115240117362 l -14.976479416642608 -10.84181614449023" fill="#ffd914" stroke="none" /><path d="M 116.57777611688842 112.89097897827486 l 14.645815696848423 11.388674870293624 a39.55267723880597,39.55267723880597 0 0,0 -0.4213934122057296,0.5324168104852437 l -14.448155854001131 -11.63841162469355" fill="#ffda14" stroke="none" /><path d="M 116.1254893667686 113.45245675266167 l 14.00819155350413 11.686131612530247 a39.242672574626866,39.242672574626866 0 0,0 -0.4359775644843194,0.5135804747125353 l -13.805519425512696 -11.924878869692337" fill="#ffd614" stroke="none" /><path d="M 115.89218393027572 113.72728997021213 l 14.0712539375931 12.154414012151344 a39.593815298507465,39.593815298507465 0 0,0 -0.44870904651009863,0.5105485265449148 l -13.860533827124417 -12.394174816507551" fill="#ffda14" stroke="none" /><path d="M 115.6541949942343 113.99807769240083 l 13.865133707183357 12.398288057620524 a39.59998600746269,39.59998600746269 0 0,0 -0.4574784596209445,0.5028489655539179 l -13.650257546720534 -12.634474598732114" fill="#ffda14" stroke="none" /><path d="M 115.41159269507618 114.26474011684316 l 13.706325841040302 12.686370574903462 a39.67638526119403,39.67638526119403 0 0,0 -0.4669422455112734,0.49587648334917406 l -13.48652776179277 -12.919788518197132" fill="#ffdb14" stroke="none" /><path d="M 115.16444852881244 114.52719865689866 l 13.41544440931396 12.851692274492919 a39.577947761194025,39.577947761194025 0 0,0 -0.4742063828609657,0.4865775241175617 l -13.192851225302187 -13.080092490678217" fill="#ffda14" stroke="none" /><path d="M 114.91283532996324 114.78537596483092 l 13.425725165062998 13.310976066845452 a39.905876865671644,39.905876865671644 0 0,0 -0.4864869958052693,0.4823290122790981 l -13.195246249127763 -13.539485089353212" fill="#ffde14" stroke="none" /><path d="M 114.65682725009322 115.03919595460226 l 13.161201939563641 13.504552628600443 a39.85709888059701,39.85709888059701 0 0,0 -0.4940904510574415,0.473327475334854 l -12.927439002640888 -13.728492234240878" fill="#ffde14" stroke="none" /><path d="M 114.39649973595853 115.28858382429668 l 12.903668662591782 13.703248956844424 a39.82242537313433,39.82242537313433 0 0,0 -0.5017061041810773,0.4643716799927738 l -12.666532787096738 -13.922738382969577" fill="#ffdd14" stroke="none" /><path d="M 114.13192950727249 115.5334660781643 l 12.959585765591765 14.244854941661362 a40.25790111940299,40.25790111940299 0 0,0 -0.5151764751176127,0.46067398078595895 l -12.713144263650774 -14.465224452330707" fill="#ffe315" stroke="none" /><path d="M 113.86319453409587 115.77377054828091 l 13.914470248953792 15.832112899236076 a42.07767257462687,42.07767257462687 0 0,0 -0.5466501201037107,0.4721833540209167 l -13.640640649087226 -16.06864038572171" fill="#fffa17" stroke="none" /><path d="M 113.59037401385872 116.0094264158162 l 14.041886299776248 16.541306753315542 a42.69768190298508,42.69768190298508 0 0,0 -0.5628482963113072,0.46954806717623987 l -13.755863669303046 -16.77991700440365" fill="#fcff18" stroke="none" /><path d="M 113.31354834802062 116.24036423190432 l 13.940291088116572 17.00488846787732 a42.98858675373134,42.98858675373134 0 0,0 -0.5747148864107843,0.46294963056031585 l -13.646325431350535 -17.24168639223104" fill="#f8ff18" stroke="none" /><path d="M 113.03279911837588 116.46651593811092 l 9.121378912820775 11.524564284409035 a35.69745335820896,35.69745335820896 0 0,0 -0.483768582266379,0.37618137561844894 l -8.922200385919165 -11.679446711648277" fill="#ffa70f" stroke="none" /><path d="M 112.7482090630111 116.68781488649013 l 13.5133394465131 17.689395119509513 a43.26039179104478,43.26039179104478 0 0,0 -0.5940002224522373,0.44574884079457594 l -13.207686235150096 -17.918762987568105" fill="#f5ff19" stroke="none" /><path d="M 112.45986205192187 116.90419585922612 l 13.790521853241158 18.709491440330126 a44.2427098880597,44.2427098880597 0 0,0 -0.6152243542775645,0.4453749877476456 l -13.467316488589626 -18.943467199450847" fill="#e9ff1a" stroke="none" /><path d="M 112.16784306229584 117.11559508785304 l 13.93229381232745 19.59751603599366 a45.04519589552238,45.04519589552238 0 0,0 -0.634075286940766,0.44263379505308964 l -13.593823434212924 -19.833794646851874" fill="#dfff1b" stroke="none" /><path d="M 111.8722381534696 117.32195027204791 l 14.072090789303957 20.53160101112276 a45.89117070895522,45.89117070895522 0 0,0 -0.6536295001248849,0.43979109824178725 l -13.717565001082068 -20.77014178342167" fill="#d5ff1c" stroke="none" /><path d="M 111.5731344415666 117.5232005979908 l 9.594797793789475 14.527746764425668 a38.410214552238806,38.410214552238806 0 0,0 -0.5533162747687205,0.35865292432750795 l -9.343995886763745 -14.690313530457072" fill="#ffcb12" stroke="none" /><path d="M 110.96478420261333 117.91015095944535 l 8.603315403379787 14.052869147167414 a37.47726212686567,37.47726212686567 0 0,0 -0.5515711474916549,0.33120262614245477 l -8.360811499330696 -14.19848577384579" fill="#ffbf11" stroke="none" /><line stroke="#e1ed5e" stroke-width="0.3" x1="143.1302829299769" x2="145.66735839644613" y1="173.24464959558577" y2="177.55315839532614" /><path d="M 143.63769802327073 174.10635135553383 a86.0,86.0 0 0,1 -40.68552437913181,11.842963189579606" fill="none" id="id42" stroke="none" /><text fill="#e1ed5e" style="font-size:6.75px; font-family:Arial;" text-anchor="middle"><textPath startOffset="21.407464694133747" xlink:href="#id42">June</textPath></text><path d="M 110.34350942703117 118.27599006163325 l 6.950751495799975 12.281311884933823 a35.11182369402985,35.11182369402985 0 0,0 -0.5271050706657838,0.2923762972952603 l -6.738902236978096 -12.398821097662227" fill="#ff9f0e" stroke="none" /><path d="M 110.02825361518725 118.45085714620011 l 10.049909778544679 18.49070204759326 a42.045349813432836,42.045349813432836 0 0,0 -0.6371095502286221,0.33922495015861515 l -9.731011412529503 -18.660497465474442" fill="#fffa17" stroke="none" /><path d="M 109.71004243097381 118.62028667847754 l 6.5799577176720705 12.617936523581935 a35.230536380597016,35.230536380597016 0 0,0 -0.5386460093447142,0.27503649037617794 l -6.362384486613774 -12.72903096563095" fill="#ffa10e" stroke="none" /><path d="M 109.3889696526874 118.78422872680471 l 6.545390569536258 13.095165722390824 a35.63986007462687,35.63986007462687 0 0,0 -0.549600162042947,0.2688369800705396 l -6.3196301582312415 -13.205596452558586" fill="#ffa60f" stroke="none" /><path d="M 109.06512990194946 118.94263497670748 l 4.6332369392981505 9.681683224732193 a31.73321361940298,31.73321361940298 0 0,0 -0.4933929710410239,0.23093282331878245 l -4.46635525438562 -9.759792279621509" fill="#ff700a" stroke="none" /><path d="M 108.73861861582097 119.09545874513695 l 6.8734697050066815 15.019771769221787 a37.517812500000005,37.517812500000005 0 0,0 -0.5879337737107441,0.26297529876512066 l -6.61462252844031 -15.135550818896759" fill="#ffbf11" stroke="none" /><path d="M 108.4095320186766 119.2426549942271 l 7.263576386877829 16.620484246506305 a39.138358208955225,39.138358208955225 0 0,0 -0.6179479427383323,0.26376523129895874 l -6.977193368969065 -16.742724127464665" fill="#ffd413" stroke="none" /><path d="M 108.07796709384702 119.3841803445677 l 7.745353784591046 18.586029485977004 a41.1353171641791,41.1353171641791 0 0,0 -0.6541407454520902,0.2660333464546729 l -7.4251585779485145 -18.716250089010966" fill="#ffee16" stroke="none" /><path d="M 107.74402155503746 119.51999308798841 l 8.588928981415433 21.64971173684206 a44.29119402985074,44.29119402985074 0 0,0 -0.7091394266722293,0.2743103642867684 l -8.216017292249674 -21.793961989266872" fill="#e8ff1a" stroke="none" /><path d="M 107.407793817531 119.65005319985036 l 8.02373943499893 21.28392212892561 a43.74611473880597,43.74611473880597 0 0,0 -0.7049599905045346,0.25887107322659314 l -7.657190292840268 -21.418524051160926" fill="#efff19" stroke="none" /><path d="M 107.06938296918513 119.77432235084164 l 7.641857909068479 21.375636644942908 a43.70056902985074,43.70056902985074 0 0,0 -0.7085615006196313,0.246474471120954 l -7.273790636403826 -21.503669548632452" fill="#f0ff19" stroke="none" /><path d="M 106.72888874123015 119.89276391827305 l 7.3095692425838745 21.60944264036208 a43.812229477611936,43.812229477611936 0 0,0 -0.7145091623353226,0.23487335361489736 l -6.937537342600818 -21.731736915378995" fill="#eeff19" stroke="none" /><path d="M 106.38641147887787 120.00534299687104 l 3.8924343917485453 12.192995292785103 a33.79922574626866,33.79922574626866 0 0,0 -0.5542419041625799,0.1717055586716885 l -3.682551854714341 -12.258017439263437" fill="#ff8d0d" stroke="none" /><path d="M 106.0420521117495 120.11202640906438 l 6.557627407385962 21.828208886460995 a43.791954291044775,43.791954291044775 0 0,0 -0.7218165007660704,0.21011026350660258 l -6.181950894238286 -21.937562844270115" fill="#eeff19" stroke="none" /><path d="M 105.69591212413111 120.21278271476187 l 4.365263100990463 15.49077876031095 a37.09409048507463,37.09409048507463 0 0,0 -0.6143816469581102,0.16745244991226463 l -4.098700053097658 -15.563431704367359" fill="#ffba11" stroke="none" /><path d="M 104.9986988182912 120.39639698878246 l 5.324733353155867 21.726729150588124 a43.36970149253732,43.36970149253732 0 0,0 -0.7246206550300437,0.1710085015473407 l -4.950980544385945 -21.814933795781688" fill="#f4ff19" stroke="none" /><path d="M 104.64783097203109 120.47920084513623 l 4.950980544385945 21.814933795781688 a43.36970149253732,43.36970149253732 0 0,0 -0.727449468841943,0.15854422594085577 l -4.575768658924866 -21.896709479856263" fill="#f4ff19" stroke="none" /><path d="M 104.29559338865022 120.5559693870025 l 3.5183193890574693 16.836431922595974 a38.200116604477614,38.200116604477614 0 0,0 -0.6430416891814295,0.12862634726912645 l -3.2287812143450814 -16.894347666527963" fill="#ffc812" stroke="none" /><path d="M 103.94208987418118 120.62667999033965 l 3.430776547170427 17.95127260297325 a39.27617070895522,39.27617070895522 0 0,0 -0.6633282642659889,0.12088050637634593 l -3.122113549353381 -18.007521283280962" fill="#ffd614" stroke="none" /><path d="M 103.58742460773223 120.69131181640829 l 2.896627849662152 16.706979687954853 a37.956226679104475,37.956226679104475 0 0,0 -0.6429468442368875,0.10579665854920788 l -2.609403502372192 -16.75424234499973" fill="#ffc512" stroke="none" /><path d="M 102.875027216393 120.80226474461374 l 3.0027272358972374 21.726238472052902 a42.93275652985075,42.93275652985075 0 0,0 -0.7309244107992988,0.09463279859447013 l -2.629325003207163 -21.774582866847766" fill="#f9ff18" stroke="none" /><path d="M 102.51750503828377 120.84855314841334 l 2.745254701168803 22.734647070365888 a43.89979477611941,43.89979477611941 0 0,0 -0.7489390664464933,0.08392018453273177 l -2.354579733121511 -22.77842301540559" fill="#edff1a" stroke="none" /><path d="M 101.80034050326958 120.92268563240118 l 1.9260536454078678 22.383662902003227 a43.46637593283582,43.46637593283582 0 0,0 -0.7439601521436512,0.05758722090875954 l -1.5415244984889809 -22.41342788990704" fill="#f3ff19" stroke="none" /><path d="M 101.44090949804482 120.95050786540614 l 1.4618443538582937 21.254896074364808 a42.3051072761194,42.3051072761194 0 0,0 -0.724939608902548,0.043610566687725116 l -1.0967603928232805 -21.276858618877224" fill="#fffd17" stroke="none" /><path d="M 100.72087961077811 120.9876233191556 l 0.7444258790350098 21.67314722822299 a42.68592817164179,42.68592817164179 0 0,0 -0.7325447709329647,0.01886775478404055 l -0.3722677940313013 -21.68273270035708" fill="#fcff18" stroke="none" /><line stroke="#e1ed5e" stroke-width="0.3" x1="101.45913802915013" x2="101.54496967792366" y1="184.9874750549273" y2="189.98673829345242" /><path d="M 101.47630435890484 185.9873277026323 a86.0,86.0 0 0,1 -42.54439059252881,-10.42667462771756" fill="none" id="id43" stroke="none" /><text fill="#e1ed5e" style="font-size:6.75px; font-family:Arial;" text-anchor="middle"><textPath startOffset="22.145653131862474" xlink:href="#id43">July</textPath></text><path d="M 100.36049292484886 120.99690560180557 l 0.40699718471578405 23.70554559776983 a44.70903917910448,44.70903917910448 0 0,0 -0.7674901095646334,0.006587979529082885 l -2.9035198941549492e-15 -23.70903917910448" fill="#e3ff1b" stroke="none" /><path d="M 99.63950707515114 120.99690560180557 l -0.34264818878811804 19.957539187850514 a40.96048041044776,40.96048041044776 0 0,0 -0.702933894723404,-0.018105083649886725 l 0.6851953975822659 -19.948716386850577" fill="#ffec16" stroke="none" /><path d="M 99.27912038922189 120.98762331915562 l -0.7933475130686866 23.097447224928754 a44.11106809701493,44.11106809701493 0 0,0 -0.7565557333774743,-0.032489758450199704 l 1.1897290070469995 -23.080424898052726" fill="#ebff1a" stroke="none" /><path d="M 98.91894614982273 120.97215588758144 l -1.5344359352816945 29.767647216609703 a50.80716884328358,50.80716884328358 0 0,0 -0.8706307933531428,-0.052374986561144456 l 2.0452110807672836 -29.736920252223868" fill="#9bff22" stroke="none" /><path d="M 97.12497278360702 120.80226474461374 l -2.65060345009842 19.17844616828046 a40.36074626865672,40.36074626865672 0 0,0 -0.6855078529984838,-0.10074604763138674 l 2.979436408704589 -19.13011904735019" fill="#ffe415" stroke="none" /><path d="M 96.76829788921471 120.74984581791261 l -3.3482483828029763 21.49815648892055 a42.757332089552236,42.757332089552236 0 0,0 -0.7242735682707092,-0.11917894004052657 l 3.716799454126749 -21.437511550384354" fill="#fbff18" stroke="none" /><path d="M 96.05791012581884 120.62667999033965 l -3.9983161374052667 20.920879558485456 a42.29952425373135,42.29952425373135 0 0,0 -0.7120490706696433,-0.14242975623120321 l 4.356861693605868 -20.84916040559139" fill="#fffd17" stroke="none" /><path d="M 95.70440661134978 120.55596938700252 l -4.857546762553484 23.245119710540987 a44.747238805970156,44.747238805970156 0 0,0 -0.7505552028562537,-0.16358001312745735 l 5.255864382028874 -23.158308239279812" fill="#e3ff1b" stroke="none" /><path d="M 95.00130118170881 120.39639698878247 l -5.224432969217938 21.31746935653149 a42.948330223880596,42.948330223880596 0 0,0 -0.7145675830967794,-0.18164028532840581 l 5.589605845540096 -21.224643839367822" fill="#f9ff18" stroke="none" /><path d="M 94.6519064749342 120.30758222061772 l -5.148986796907809 19.5515415429826 a41.218180970149255,41.218180970149255 0 0,0 -0.6826880933836916,-0.18606967563082766 l 5.483856291226196 -19.460271373207632" fill="#ffef16" stroke="none" /><path d="M 93.61358852112213 120.00534299687104 l -5.648399674770233 17.6935315318968 a39.57324626865672,39.57324626865672 0 0,0 -0.6453779544991047,-0.2121485524788696 l 5.951300366917081 -17.593962058015904" fill="#ffda14" stroke="none" /><path d="M 93.27111125876986 119.89276391827306 l -6.445233440655325 19.05418742436749 a41.11474813432835,41.11474813432835 0 0,0 -0.6666349725505482,-0.23189024826559387 l 6.771374185250894 -18.940738743533306" fill="#ffee16" stroke="none" /><path d="M 92.59220618246901 119.65005319985036 l -8.296349011586234 22.007051418789505 a44.51892257462686,44.51892257462686 0 0,0 -0.7127855530234563,-0.27572076428713715 l 8.672906827103217 -21.861390766364327" fill="#e6ff1a" stroke="none" /><path d="M 92.25597844496254 119.51999308798841 l -8.698262718575403 21.92530417656847 a44.587681902985075,44.587681902985075 0 0,0 -0.7090408313029324,-0.28836073342925184 l 9.073358011068777 -21.772756186559928" fill="#e5ff1a" stroke="none" /><path d="M 91.92203290615298 119.3841803445677 l -6.94622280483127 16.668406047971967 a39.05784514925373,39.05784514925373 0 0,0 -0.6166767376627263,-0.26322262944270886 l 7.2313346176644275 -16.546708768869856" fill="#ffd313" stroke="none" /><path d="M 91.26138138417905 119.09545874513695 l -6.939987548201722 15.165125261162377 a37.67766324626865,37.67766324626865 0 0,0 -0.5858182040407653,-0.27419249918625915 l 7.199294466113977 -15.043756530405592" fill="#ffc112" stroke="none" /><path d="M 90.93487009805054 118.94263497670748 l -10.533520276785298 22.011006105933575 a45.40162779850746,45.40162779850746 0 0,0 -0.7001358013983313,-0.3424715047163488 l 10.9098163274457 -21.826940851120007" fill="#dbff1b" stroke="none" /><path d="M 90.28995756902619 118.62028667847754 l -11.152192063107671 21.385798752650867 a45.118950559701496,45.118950559701496 0 0,0 -0.6836835565747705,-0.3640229852465986 l 11.517664435469005 -21.191205299681695" fill="#deff1b" stroke="none" /><path d="M 89.97174638481275 118.45085714620012 l -4.967353236627267 9.13937047073905 a31.40205223880597,31.40205223880597 0 0,0 -0.47141330819567867,-0.2614850154483798 l 5.123510732979049 -9.052752539857522" fill="#ff6c09" stroke="none" /><line stroke="#e1ed5e" stroke-width="0.3" x1="58.13341422392154" x2="55.67067388415222" y1="173.97424548756322" y2="178.32567169271397" /><path d="M 57.64086615596768 174.84453072859336 a86.0,86.0 0 0,1 -31.369924170532247,-30.572349798747897" fill="none" id="id44" stroke="none" /><text fill="#e1ed5e" style="font-size:6.75px; font-family:Arial;" text-anchor="middle"><textPath startOffset="22.145653131862474" xlink:href="#id44">August</textPath></text><path d="M 89.65649057296885 118.27599006163327 l -21.72860639384589 38.39236550307372 a65.1146921641791,65.1146921641791 0 0,0 -0.9680617784099108,-0.558910728357154 l 22.3844606401162 -38.01370787744039" fill="#35ff63" stroke="none" /><path d="M 88.72937992617639 117.7192867562869 l -11.622826951130596 18.273014467420868 a42.65625,42.65625 0 0,0 -0.6144823094779491,-0.3983000090389639 l 11.934794892865556 -18.070800616678007" fill="#fdff18" stroke="none" /><path d="M 88.4268655584334 117.5232005979908 l -12.997104994591442 19.6792735073891 a44.583861940298505,44.583861940298505 0 0,0 -0.6350094570149485,-0.427262702251304 l 13.333010739703397 -19.453261131080676" fill="#e5ff1a" stroke="none" /><path d="M 88.1277618465304 117.32195027204791 l -10.82156722658558 15.788989990043078 a40.14153917910448,40.14153917910448 0 0,0 -0.565049334723043,-0.39444831957951115 l 11.09101165248239 -15.600896854658439" fill="#ffe115" stroke="none" /><path d="M 87.54013794807813 116.9041958592261 l -26.199010220210145 35.54398902931576 a65.15612406716417,65.15612406716417 0 0,0 -0.8946463632821939,-0.6713593097790245 l 26.805309572403104 -35.08901069227272" fill="#35ff63" stroke="none" /><path d="M 86.96720088162412 116.46651593811092 l -10.018964322251456 12.658634127422767 a37.14375,37.14375 0 0,0 -0.4965751999341306,-0.400005830352905 l 10.234790292540847 -12.484780003276452" fill="#ffba11" stroke="none" /><path d="M 86.40962598614128 116.0094264158162 l -11.495402646517164 13.541555412818415 a38.762826492537314,38.762826492537314 0 0,0 -0.5035854518836154,-0.4349851192961107 l 11.726167578163642 -13.342226161057582" fill="#ffd013" stroke="none" /><path d="M 86.13680546590413 115.77377054828092 l -7.79222748742487 8.866124481218908 a32.803684701492536,32.803684701492536 0 0,0 -0.419785587064295,-0.37537486047927443 l 7.9432781013125355 -8.73105409085625" fill="#ff7f0b" stroke="none" /><path d="M 84.3458050057657 113.99807769240083 l -13.188732296611596 11.793445745389175 a38.6925979477612,38.6925979477612 0 0,0 -0.4384957246793159,-0.4989276411351151 l 13.389239085249505 -11.56530582644276" fill="#ffcf13" stroke="none" /><path d="M 83.8745106332314 113.45245675266167 l -13.605881653211005 11.350510385058293 a38.71875,38.71875 0 0,0 -0.4213949270287761,-0.5140332931183995 l 13.798723399478412 -11.115274810241397" fill="#ffcf13" stroke="none" /><path d="M 83.64595745247003 113.17365903436017 l -14.137398534324648 11.388087525318632 a39.15363805970149,39.15363805970149 0 0,0 -0.4171420569745436,-0.5270453620314627 l 14.330807021940753 -11.143722219372489" fill="#ffd513" stroke="none" /><path d="M 83.20337586046588 112.60449989151573 l -9.441050256787573 7.084740120926119 a32.803684701492536,32.803684701492536 0 0,0 -0.33412580513609774,-0.45330582538600517 l 9.561278081507501 -6.921627986271234" fill="#ff7f0b" stroke="none" /><path d="M 82.78059297857968 112.02048342749411 l -13.754965131140533 9.60203392596246 a37.77492537313433,37.77492537313433 0 0,0 -0.36661511819428405,-0.5349024138710068 l 13.917769986150143 -9.364496777021403" fill="#ffc312" stroke="none" /><path d="M 82.576782715395 111.72311816256416 l -17.11562923692669 11.516159196867777 a41.6292677238806,41.6292677238806 0 0,0 -0.393843720112441,-0.5963295895882649 l 17.31079739595986 -11.220649728940451" fill="#fff417" stroke="none" /><path d="M 82.37810715431573 111.42229804090323 l -13.481487751927993 8.73853748208559 a37.06588152985074,37.06588152985074 0 0,0 -0.3415043962055625,-0.5369016332076658 l 13.629509839759445 -8.505822174199253" fill="#ffb911" stroke="none" /><path d="M 82.18462484594161 111.11811171558189 l -12.57330072789734 7.8466695715091355 a35.82086753731343,35.82086753731343 0 0,0 -0.32107784816770585,-0.5244565350448869 l 12.70614654052045 -7.629675920339691" fill="#ffa90f" stroke="none" /><line stroke="#e1ed5e" stroke-width="0.3" x1="26.387840678322732" x2="22.057713659400548" y1="142.50000000000003" y2="145.00000000000006" /><path d="M 25.521815274538298 143.00000000000003 a86.0,86.0 0 0,1 -11.493303480769221,-40.785679425670985" fill="none" id="id45" stroke="none" /><text fill="#e1ed5e" style="font-size:6.75px; font-family:Arial;" text-anchor="middle"><textPath startOffset="21.40746469413373" xlink:href="#id45">September</textPath></text><path d="M 81.81346652052679 110.50000000000001 l -17.123673104017055 9.886357276119414 a40.77271455223881,40.77271455223881 0 0,0 -0.34475589152309166,-0.6091506264498073 l 17.290862360561526 -9.590949879570484" fill="#ffea15" stroke="none" /><path d="M 81.63589988554817 110.18625677009913 l -19.287444327296 10.698420240162884 a43.05587686567164,43.05587686567164 0 0,0 -0.35296521089595806,-0.6494162327483258 l 19.468254887807287 -10.365749173939971" fill="#f8ff18" stroke="none" /><path d="M 81.4637452351635 109.86951160357371 l -16.09256427543303 8.56838405938057 a39.23150652985075,39.23150652985075 0 0,0 -0.3114083609753671,-0.5971665929017628 l 16.23728070538335 -8.290871223374303" fill="#ffd614" stroke="none" /><path d="M 81.1358732173502 109.22738970284198 l -14.986422512290938 7.330610229970465 a37.68324626865672,37.68324626865672 0 0,0 -0.2792521308003684,-0.5835295508651884 l 15.110053901051218 -7.072268177040172" fill="#ffc112" stroke="none" /><path d="M 80.9802524753101 108.90220220490708 l -20.41943771333056 9.557327887691704 a43.5454197761194,43.5454197761194 0 0,0 -0.31107092622979887,-0.6797461131761103 l 20.580493104415414 -9.205392792300906" fill="#f2ff19" stroke="none" /><path d="M 80.68587082218212 108.24405325689762 l -15.762545489219601 6.728093370455505 a38.13840951492537,38.13840951492537 0 0,0 -0.25184817762875905,-0.6043439441991655 l 15.875719511384846 -6.456516916815058" fill="#ffc712" stroke="none" /><path d="M 80.5471966667186 107.91128576633889 l -18.41773999174186 7.490334516234446 a40.8826119402985,40.8826119402985 0 0,0 -0.25880898105662026,-0.652367698802218 l 18.543607647764606 -7.173065800218662" fill="#ffeb16" stroke="none" /><path d="M 80.41425534168474 107.57618678355246 l -19.487998637865655 7.538376523018877 a41.89519589552239,41.89519589552239 0 0,0 -0.2537039720711349,-0.6729799277637986 l 19.614533293751226 -7.202728315060933" fill="#fff817" stroke="none" /><path d="M 80.16572619554312 106.89939002012753 l -15.806824597008049 5.4984341221506075 a37.73584421641791,37.73584421641791 0 0,0 -0.20757333982239695,-0.6136536958195528 l 15.898883358402813 -5.226278751856893" fill="#ffc212" stroke="none" /><path d="M 80.05021161711548 106.5578916946017 l -25.37038037096725 8.339747947722127 a47.70594682835821,47.70594682835821 0 0,0 -0.24905976379248665,-0.7801761627585785 l 25.50980485053699 -7.903002751272156" fill="#bfff1e" stroke="none" /><path d="M 79.83685265289637 105.86919833188381 l -17.60654678445899 5.125009168393782 a39.3372901119403,39.3372901119403 0 0,0 -0.18316474023073478,-0.649987045903444 l 17.691930016764296 -4.8220141985873415" fill="#ffd714" stroke="none" /><path d="M 79.73907114497094 105.5222062557868 l -9.428135960860724 2.56968038119094 a30.77205223880597,30.77205223880597 0 0,0 -0.13453324251184126,-0.5108446348050621 l 9.470858684177298 -2.4074552420130755" fill="#ff6309" stroke="none" /><path d="M 79.64726062577567 105.17358676015961 l -17.166643331234162 4.3636936051631645 a38.712579291044776,38.712579291044776 0 0,0 -0.15819153256660304,-0.6454754358645921 l 17.23902239031706 -4.068362344690472" fill="#ffcf13" stroke="none" /><path d="M 79.48165901384964 104.47187691870673 l -16.004593072849143 3.4881265694958956 a37.38029384328358,37.38029384328358 0 0,0 -0.13126230657435994,-0.6281376544481945 l 16.06211309024787 -3.212872463762292" fill="#ffbd11" stroke="none" /><path d="M 79.407916724674 104.11899336999214 l -22.981975104336907 4.597038668618607 a44.43723414179105,44.43723414179105 0 0,0 -0.1432015426238536,-0.7492909822201063 l 23.057502939242916 -4.201845121365187" fill="#e7ff1a" stroke="none" /><path d="M 79.2786578344484 103.40968896794605 l -8.744715667626442 1.4389396353533501 a29.86231343283582,29.86231343283582 0 0,0 -0.07889126621681435,-0.5065385218877776 l 8.768128425981525 -1.2886129315341224" fill="#ff5607" stroke="none" /><path d="M 79.22317932658666 103.0534771498775 l -16.56466914640502 2.434435928811381 a37.7426026119403,37.7426026119403 0 0,0 -0.08870497135127674,-0.6418249843658032 l 16.604018634311508 -2.149722636245492" fill="#ffc212" stroke="none" /><path d="M 79.0935383218832 101.97986365728391 l -21.18329677468478 2.0060802287532655 a42.27807369402986,42.27807369402986 0 0,0 -0.062222004628590774,-0.7231140108760105 l 21.214612402011113 -1.6421451705015928" fill="#fffd17" stroke="none" /><path d="M 79.06263194458094 101.62068470465958 l -23.546921922848664 1.8226806779707367 a44.61736007462686,44.61736007462686 0 0,0 -0.05255508340562857,-0.7641393784625242 l 23.57474096741936 -1.418197875353869" fill="#e4ff1a" stroke="none" /><path d="M 79.01933749520258 100.90099992219065 l -19.14094023292153 0.8219943319985588 a40.15858208955224,40.15858208955224 0 0,0 -0.02366547729147512,-0.6889945500406289 l 19.152230397209852 -0.49329351739380983" fill="#ffe215" stroke="none" /><path d="M 79.00696218219943 100.54070618675478 l -20.67471521544204 0.5325073256860202 a41.68157182835821,41.68157182835821 0 0,0 -0.012283298015948088,-0.7154405291804372 l 20.680809945056655 -0.17751988053653062" fill="#fff517" stroke="none" /><line stroke="#e1ed5e" stroke-width="0.3" x1="15.003131293944662" x2="10.003315487706104" y1="100.72959589197737" y2="100.7725132973878" /><path d="M 14.003168132696942 100.73817937305945 a86.0,86.0 0 0,1 10.791469493833604,-42.45332614584628" fill="none" id="id46" stroke="none" /><text fill="#e1ed5e" style="font-size:6.75px; font-family:Arial;" text-anchor="middle"><textPath startOffset="22.145653131862435" xlink:href="#id46">October</textPath></text><path d="M 79.00077361379809 99.81974689727619 l -14.718067859396273 -0.1263369111301655 a35.718610074626866,35.718610074626866 0 0,0 0.010526050554638337,-0.6130896742237205 l 14.713730377242968 0.3789735013229384" fill="#ffa70f" stroke="none" /><path d="M 79.0935383218832 98.0201363427161 l -7.428327165005875 -0.7034703057286875 a28.4615625,28.4615625 0 0,0 0.05023819181469512,-0.4860089333934398 l 7.4151565807095166 0.8308837614050401" fill="#ff4206" stroke="none" /><path d="M 79.22317932658666 96.9465228501225 l -2.995292678146141 -0.4402048751192317 a24.027467350746267,24.027467350746267 0 0,0 0.06347657315789987,-0.4075651346948597 l 2.9872946128499738 0.4915581917455414" fill="#ff0000" stroke="none" /><path d="M 79.34024301695615 96.23510406497455 l -14.51540649672478 -2.64519059733439 a35.75445895522388,35.75445895522388 0 0,0 0.1152208002354931,-0.6028839145079244 l 14.467859404207127 2.893977076875629" fill="#ffa80f" stroke="none" /><path d="M 79.407916724674 95.88100663000787 l -14.546520393957554 -2.909711477855216 a35.83467817164179,35.83467817164179 0 0,0 0.12583481905947425,-0.6021651619168688 l 14.494427864073714 3.158993091057494" fill="#ffa90f" stroke="none" /><path d="M 79.48165901384962 95.52812308129327 l -15.598341405469446 -3.399585909421683 a36.96450559701493,36.96450559701493 0 0,0 0.14044600259680054,-0.6188310014680863 l 15.537684541314983 3.6668512448287776" fill="#ffb811" stroke="none" /><path d="M 79.56144815229197 95.17655741523228 l -20.201563788503726 -4.767514048080528 a41.75650186567164,41.75650186567164 0 0,0 0.1706299385295282,-0.696228376809771 l 20.1167463234579 5.113598249498417" fill="#fff617" stroke="none" /><path d="M 79.94057633289273 93.78553927170692 l -16.91026256071191 -5.238842567595236 a38.703176305970146,38.703176305970146 0 0,0 0.20205874926799822,-0.6329461541891315 l 16.817839095666656 5.528357755475759" fill="#ffcf13" stroke="none" /><path d="M 80.05021161711548 93.44210830539832 l -19.64505164336052 -6.457718675479388 a41.679221082089555,41.679221082089555 0 0,0 0.2292646501185606,-0.6777802004168955 l 19.531301571669594 6.794000550370445" fill="#fff517" stroke="none" /><path d="M 80.16572619554312 93.10060997987247 l -19.517702512671203 -6.789270091727913 a41.66482276119403,41.66482276119403 0 0,0 0.24078265740227386,-0.6735119464766622 l 19.398279685224985 7.123316994585497" fill="#fff517" stroke="none" /><path d="M 80.28708602549916 92.7611449362534 l -19.360214636785415 -7.109338981542627 a41.6242723880597,41.6242723880597 0 0,0 0.2520633455386289,-0.6686279709681688 l 19.23532060743235 7.440635232704941" fill="#fff417" stroke="none" /><path d="M 80.5471966667186 92.08871423366112 l -21.25835737401041 -8.64558887618096 a43.949160447761194,43.949160447761194 0 0,0 0.29021965278209927,-0.6964215159221312 l 21.106811876691832 9.009242901544356" fill="#edff1a" stroke="none" /><path d="M 80.83023694016515 91.42560881287825 l -18.810955880921057 -8.413901299836667 a41.60693563432835,41.60693563432835 0 0,0 0.2972231769012092,-0.6494862817722779 l 18.6637482391648 8.735576563823617" fill="#fff417" stroke="none" /><path d="M 80.9802524753101 91.09779779509293 l -24.103804104167413 -11.281797393168379 a47.61338619402985,47.61338619402985 0 0,0 0.35283954716935906,-0.7372989487926328 l 23.90658529903815 11.693908844026097" fill="#c0ff1e" stroke="none" /><path d="M 81.1358732173502 90.77261029715801 l -25.925064461914875 -12.681248149869841 a49.860405783582095,49.860405783582095 0 0,0 0.3826906919759726,-0.7656377382834729 l 25.703553856727158 13.124417744317084" fill="#a6ff21" stroke="none" /><path d="M 81.29705330413844 90.45014215332179 l -18.144824247353515 -9.264876547690118 a41.37333022388059,41.37333022388059 0 0,0 0.32840953847410176,-0.6297685924448632 l 17.983106639904474 9.57499138323947" fill="#fff116" stroke="none" /><path d="M 81.63589988554816 89.8137432299009 l -21.968568682625172 -12.185594724386936 a46.12183768656716,46.12183768656716 0 0,0 0.38998569128734945,-0.6890673487975425 l 21.756149626316454 12.560918843283584" fill="#d2ff1c" stroke="none" /><line stroke="#e1ed5e" stroke-width="0.3" x1="26.387840678322718" x2="22.05771365940052" y1="57.49999999999999" y2="54.99999999999999" /><path d="M 25.521815274538284 56.99999999999999 a86.0,86.0 0 0,1 29.574782752854787,-30.34633250058573" fill="none" id="id47" stroke="none" /><text fill="#e1ed5e" style="font-size:6.75px; font-family:Arial;" text-anchor="middle"><textPath startOffset="21.40746469413373" xlink:href="#id47">November</textPath></text><path d="M 81.81346652052679 89.5 l -25.807658015216074 -14.900058302238808 a50.80011660447761,50.80011660447761 0 0,0 0.4425084216872228,-0.7514760416062497 l 25.548075883399072 15.34088551213863" fill="#9bff22" stroke="none" /><path d="M 82.37810715431573 88.57770195909679 l -15.313539951229787 -9.926051583446283 a39.249137126865676,39.249137126865676 0 0,0 0.37132592097891826,-0.562234771694791 l 15.140889591330138 10.187466233480134" fill="#ffd614" stroke="none" /><path d="M 82.576782715395 88.27688183743585 l -22.813118806999714 -15.349684450493571 a48.49638526119403,48.49638526119403 0 0,0 0.47066957350428157,-0.6867209738733632 l 22.54625949668012 15.73904015943697" fill="#b6ff1f" stroke="none" /><path d="M 82.78059297857968 87.97951657250589 l -19.33689613578481 -13.498655281812603 a44.5823927238806,44.5823927238806 0 0,0 0.44345660530599423,-0.6237772509550429 l 19.102324431948844 13.828609759477166" fill="#e5ff1a" stroke="none" /><path d="M 82.98947788004972 87.6856937992154 l -27.251665705403006 -19.728104382179538 a54.642999067164176,54.642999067164176 0 0,0 0.5565727211595092,-0.7550977891389729 l 26.908990964659676 20.193008480587373" fill="#71ff27" stroke="none" /><path d="M 83.2033758604659 87.39550010848427 l -30.609967275180807 -22.97029010080703 a59.27014925373134,59.27014925373134 0 0,0 0.6176740460044864,-0.808555153823116 l 30.211141251822017 23.492366167871033" fill="#40ff2d" stroke="none" /><path d="M 83.42222388311158 87.10902102172516 l -11.946205270798785 -9.28944147454974 a36.13292910447761,36.13292910447761 0 0,0 0.38495948571048466,-0.48638373456097705 l 11.78497935444674 9.4931451530254" fill="#ffad10" stroke="none" /><path d="M 83.8745106332314 86.54754324733833 l -21.592060346971383 -18.01286468968106 a49.119039179104476,49.119039179104476 0 0,0 0.5457018512281959,-0.6428354085990271 l 21.279663932236073 18.38086688072964" fill="#afff20" stroke="none" /><path d="M 84.10781606972428 86.27271002978789 l -22.33726505311841 -19.294397539754762 a50.51655783582089,50.51655783582089 0 0,0 0.5724943738962495,-0.6513935061512217 l 22.002759615263567 19.675003323717284" fill="#9eff22" stroke="none" /><path d="M 84.34580500576568 86.00192230759919 l -18.010501807918683 -16.105101774906224 a45.16097014925373,45.16097014925373 0 0,0 0.5217216757343247,-0.5734635138175355 l 17.731382431342492 16.411902864281416" fill="#deff1b" stroke="none" /><path d="M 84.58840730492382 85.73525988315684 l -21.96798900905891 -20.333242663752042 a50.93381529850746,50.93381529850746 0 0,0 0.5994283484085886,-0.6365721334620091 l 21.61570482691405 20.707356257158562" fill="#9aff23" stroke="none" /><path d="M 84.83555147118756 85.47280134310135 l -18.408466400892593 -17.634894395698353 a46.49237406716418,46.49237406716418 0 0,0 0.557052141006317,-0.5715845702876435 l 18.103027458735472 17.948301658053726" fill="#ceff1d" stroke="none" /><path d="M 85.08716467003674 85.21462403516908 l -4.2662255362094035 -4.229762289192652 a27.007625932835822,27.007625932835822 0 0,0 0.32924621223395956,-0.326432158953343 l 4.192987403845468 4.302374458374668" fill="#ff2c04" stroke="none" /><path d="M 85.34317274990677 84.96080404539775 l -19.927200836128385 -20.44706354844581 a49.551282649253736,49.551282649253736 0 0,0 0.6142648682983854,-0.5884518485963827 l 19.573263481964702 20.786127527347762" fill="#aaff21" stroke="none" /><path d="M 85.60350026404147 84.71141617570332 l -21.16869647509144 -22.480422078025413 a51.878521455223876,51.878521455223876 0 0,0 0.6535958231096458,-0.6049585362512215 l 20.779670880667844 22.840498360408997" fill="#8fff24" stroke="none" /><path d="M 85.86807049272753 84.46653392183569 l -22.284484083331236 -24.494551674609053 a54.11466884328358,54.11466884328358 0 0,0 0.6925001942886116,-0.6192379439009759 l 21.860718862219233 24.87348514839343" fill="#76ff27" stroke="none" /><path d="M 86.13680546590413 84.22622945171909 l -6.809712371074192 -7.748202636624085 a31.315368470149252,31.315368470149252 0 0,0 0.40683214844972415,-0.35141192019144135 l 6.675700742861619 7.863958689280238" fill="#ff6a09" stroke="none" /><path d="M 86.68645165197937 83.75963576809568 l -30.41748378169042 -37.1043843999814 a68.97873134328358,68.97873134328358 0 0,0 0.922177413642826,-0.7428408469166826 l 29.77605559769235 37.62107354069148" fill="#3aff90" stroke="none" /><path d="M 86.96720088162412 83.53348406188908 l -3.7849218148585546 -4.782125069433193 a27.09871735074627,27.09871735074627 0 0,0 0.3672393081506065,-0.2855675072450095 l 3.7022725620727037 4.846393628299007" fill="#ff2e04" stroke="none" /><path d="M 87.25179093698888 83.31218511350988 l -18.329415423550017 -23.993793171566583 a51.19386660447761,51.19386660447761 0 0,0 0.7029332581667986,-0.5274942216187545 l 17.914829176472466 24.30490642044934" fill="#97ff23" stroke="none" /><path d="M 87.54013794807813 83.09580414077388 l -17.68207848842234 -23.989135411045417 a50.801585820895525,50.801585820895525 0 0,0 0.7064298934675272,-0.5114007645505534 l 17.267667584580845 24.28913694696905" fill="#9bff22" stroke="none" /><path d="M 87.83215693770416 82.88440491214696 l -17.77248551386779 -24.999226584592424 a51.67283115671641,51.67283115671641 0 0,0 0.7273686925178366,-0.5077598376768954 l 17.340721730176185 25.30063123807445" fill="#91ff23" stroke="none" /><path d="M 88.12776184653039 82.6780497279521 l -4.244103642884909 -6.192274051543095 a28.507108208955223,28.507108208955223 0 0,0 0.40602770861520443,-0.27319356279721374 l 4.137179646172715 6.264217288397419" fill="#ff4206" stroke="none" /><path d="M 88.4268655584334 82.4767994020092 l -19.603345939699317 -29.681964296498734 a56.57119869402985,56.57119869402985 0 0,0 0.814933352637457,-0.5282299534341574 l 19.090926954804832 30.014108091636796" fill="#5cff2a" stroke="none" /><path d="M 88.72937992617638 82.28071324371311 l -22.685802671915038 -35.66584981191981 a63.26935634328358,63.26935634328358 0 0,0 0.921430415150626,-0.5750407277528442 l 22.070208127974716 36.05002633651419" fill="#32ff4d" stroke="none" /><line stroke="#e1ed5e" stroke-width="0.3" x1="56.869717070023135" x2="54.33264160355391" y1="26.7553504044142" y2="22.446841604673864" /><path d="M 56.362301976729285 25.89364864446614 a86.0,86.0 0 0,1 42.16139366436587,-11.88097634709845" fill="none" id="id48" stroke="none" /><text fill="#e1ed5e" style="font-size:6.75px; font-family:Arial;" text-anchor="middle"><textPath startOffset="22.145653131862474" xlink:href="#id48">December</textPath></text><path d="M 89.34428304082924 81.90426304109057 l -3.8737805361410724 -6.5785262396841295 a28.634342350746266,28.634342350746266 0 0,0 0.4257074933222349,-0.2457823358656318 l 3.7602805749584376 6.644055472825936" fill="#ff4406" stroke="none" /><path d="M 89.65649057296885 81.72400993836675 l -18.250118909201316 -32.24621141993994 a58.05246268656717,58.05246268656717 0 0,0 0.8714941073233949,-0.4834030905679083 l 17.693880613721817 32.554747425940995" fill="#4cff2c" stroke="none" /><path d="M 89.97174638481275 81.54914285379989 l -19.062007564487804 -35.07194692000047 a60.91743470149254,60.91743470149254 0 0,0 0.9230766207431776,-0.49148630804830623 l 18.45714212795806 35.39400369577135" fill="#2fff30" stroke="none" /><path d="M 90.28995756902619 81.37971332152246 l -14.173763429093126 -27.180060256046314 a51.65373134328358,51.65373134328358 0 0,0 0.7897431919642035,-0.4032485009599548 l 13.705093015415342 27.419366708679103" fill="#92ff23" stroke="none" /><path d="M 90.61103034731259 81.2157712731953 l -15.533183212017185 -31.076771690957376 a55.742560634328356,55.742560634328356 0 0,0 0.8596027114912279,-0.4204747614315529 l 14.997420251263906 31.338840202486143" fill="#65ff29" stroke="none" /><path d="M 90.93487009805054 81.0573650232925 l -3.3892761797587143 -7.082283674127203 a28.851492537313433,28.851492537313433 0 0,0 0.44858752071830377,-0.20996161020793325 l 3.267199945168888 7.1394215159056795" fill="#ff4706" stroke="none" /><path d="M 91.26138138417902 80.90454125486306 l -21.143870303839975 -46.2031724749405 a71.81138059701493,71.81138059701493 0 0,0 1.125341089376747,-0.5033507555174328 l 20.34761581160761 46.559326981367775" fill="#3dffb0" stroke="none" /><path d="M 91.5904679813234 80.7573450057729 l -2.848807418453737 -6.5186288816731075 a28.113945895522388,28.113945895522388 0 0,0 0.4438856360719736,-0.18946838296763666 l 2.736486707211332 6.566571914300148" fill="#ff3d05" stroke="none" /><path d="M 91.92203290615298 80.6158196554323 l -13.518086089865614 -32.43848552922927 a56.142481343283585,56.142481343283585 0 0,0 0.8927871991565932,-0.3630887816036809 l 12.959244429518579 32.66576156741224" fill="#60ff29" stroke="none" /><path d="M 92.25597844496254 80.48000691201159 l -11.197768481775727 -28.225691497845922 a51.365764925373135,51.365764925373135 0 0,0 0.8224092821974969,-0.3181255777175782 l 10.711586937084702 28.41375696370154" fill="#95ff23" stroke="none" /><path d="M 92.93061703081487 80.22567764915836 l -8.924931134254587 -24.964620813032003 a47.51201026119403,47.51201026119403 0 0,0 0.7703602501178616,-0.2679712841501551 l 8.495065112091721 25.11415052975074" fill="#c1ff1e" stroke="none" /><path d="M 93.27111125876988 80.10723608172694 l -9.536881631518654 -28.194095950772542 a50.76338619402985,50.76338619402985 0 0,0 0.8278716919743231,-0.2721378687731841 l 9.051487201896569 28.353654740947757" fill="#9cff22" stroke="none" /><path d="M 93.61358852112211 79.99465700312896 l -16.241561841689222 -50.87646114292877 a74.40601679104478,74.40601679104478 0 0,0 1.2201147072718133,-0.3779946551897593 l 15.365806501545794 51.14777238592517" fill="#41ffcc" stroke="none" /><path d="M 94.30408787586887 79.78721728523814 l -8.720882470166313 -30.947335318544194 a53.152625932835825,53.152625932835825 0 0,0 0.8803558042191467,-0.2399448892082962 l 8.188345265012488 31.09248070189663" fill="#81ff25" stroke="none" /><path d="M 94.6519064749342 79.69241777938228 l -4.9766454808412055 -18.897133494651225 a40.541459888059705,40.541459888059705 0 0,0 0.674522451895415,-0.17146096957228604 l 4.651517735720413 18.979779696058774" fill="#ffe715" stroke="none" /><path d="M 95.35216902796891 79.52079915486377 l -8.301060801353293 -36.57600553927036 a58.50615671641791,58.50615671641791 0 0,0 0.9813365359378182,-0.2138777305390387 l 7.6719618487963555 36.713114727943115" fill="#48ff2c" stroke="none" /><path d="M 95.70440661134978 79.44403061299748 l -6.466230458269445 -30.943253544595112 a52.611660447761196,52.611660447761196 0 0,0 0.8856384223968804,-0.17715248822998172 l 5.9340955503415875 31.04969542948796" fill="#87ff25" stroke="none" /><path d="M 96.05791012581881 79.37332000966035 l -7.681835069885863 -40.194607120167696 a61.9220848880597,61.9220848880597 0 0,0 1.0457910826618526,-0.1905779723948836 l 6.990709253672972 40.32055326649394" fill="#31ff3c" stroke="none" /><path d="M 96.76829788921471 79.25015418208739 l -6.4738801216032265 -41.566954428938345 a63.06807369402985,63.06807369402985 0 0,0 1.071180882111659,-0.1574267015308517 l 5.759374133883883 41.671962203768075" fill="#32ff4a" stroke="none" /><path d="M 97.12497278360702 79.19773525538626 l -4.453543208826286 -32.22362012899902 a53.529920708955224,53.529920708955224 0 0,0 0.9113397069466077,-0.11799117072080827 l 3.8997256799888844 32.29532289592023" fill="#7dff26" stroke="none" /><path d="M 97.48249496171623 79.15144685158666 l -2.0523537109210275 -16.996432885254542 a38.1198973880597,38.1198973880597 0 0,0 0.6503328889906311,-0.07287115667599832 l 1.760284920329597 17.02915980243751" fill="#ffc712" stroke="none" /><path d="M 97.84075906011542 79.11130261209362 l -3.096285038623759 -29.95374902532695 a51.11335354477612,51.11335354477612 0 0,0 0.8735526144798196,-0.08272634082046838 l 2.5816328607589236 30.0024871216526" fill="#98ff23" stroke="none" /><path d="M 98.1996594967304 79.07731436759882 l -2.3120604205701936 -26.869646744521187 a47.96893656716418,47.96893656716418 0 0,0 0.8210249090428411,-0.06355252048433967 l 1.8504665167521355 26.90537703200058" fill="#bcff1f" stroke="none" /><path d="M 99.27912038922189 79.0123766808444 l -0.612266858600103 -17.82548154640055 a38.83599347014925,38.83599347014925 0 0,0 0.6664749991179675,-0.017166031827701336 l 0.30617854541139156 17.833365295578297" fill="#ffd113" stroke="none" /><path d="M 99.63950707515114 79.00309439819443 l -1.081478774546572 -62.990716805416696 a84.0,84.0 0 0,0 1.4419716993954086,-0.012377592777739643 l 1.543054966925665e-14 63.0" fill="#4dd2ff" stroke="none" /></svg>