<?xml version="1.0" encoding="utf-8" ?>
<svg baseProfile="full" height="200mm" version="1.1" viewBox="0,0,200,200" width="200mm" xmlns="http://www.w3.org/2000/svg" xmlns:ev="http://www.w3.org/2001/xml-events" xmlns:xlink="http://www.w3.org/1999/xlink"><defs /><rect fill="#1a1a1a" height="200" width="200" x="0" y="0" /><text alignment-baseline="middle" fill="#e1ed5e" style="dominant-baseline: central; font-size:9.0px; font-family:Arial;" text-anchor="middle" x="100.0" y="100.0">2022</text><line stroke="#e1ed5e" stroke-width="0.3" x1="100.0" x2="100.0" y1="15.0" y2="10.0" /><path d="M 100.0 14.0 a86.0,86.0 0 0,1 42.46469731375804,11.215312516191453" fill="none" id="id61" stroke="none" /><text fill="#e1ed5e" style="font-size:6.75px; font-family:Arial;" text-anchor="middle"><textPath startOffset="22.20632615414155" xlink:href="#id61">January</textPath></text><path d="M 100.0 79.0 l 0.0 -13.785287879978007 a34.78528787997801,34.78528787997801 0 0,0 0.598771549261301,0.005153815763416662 l -0.2372910699887727 13.78324544082315" fill="#ff7b0b" stroke="none" /><path d="M 100.36148047927253 79.00311137660856 l 0.3797944301900353 -22.06066940746869 a43.06393841803472,43.06393841803472 0 0,0 0.741055253708867,0.0191392708773401 l -0.7594763190937701 22.05086334444899" fill="#ffef16" stroke="none" /><path d="M 100.72285384407766 79.0124445844662 l 0.6659991076702222 -19.33681793829285 a40.348283716911475,40.348283716911475 0 0,0 0.693912026748516,0.029881311554513644 l -0.9987519668080698 19.322488900214143" fill="#ffca12" stroke="none" /><path d="M 101.08401301168833 79.027996857942 l 0.8608271839866247 -16.654108587883844 a37.676341214358644,37.676341214358644 0 0,0 0.6473835129051838,0.03905194142612817 l -1.1473727457314205 16.636823377077413" fill="#ffa50f" stroke="none" /><path d="M 101.44485096284872 79.0497635885617 l 1.064789297144016 -15.439369234010105 a36.47604273034325,36.47604273034325 0 0,0 0.6260154120597221,0.0485908443706532 l -1.3303948985660792 15.418753127450987" fill="#ff940d" stroke="none" /><path d="M 102.52436894288641 79.15227682838746 l 2.2975306685433035 -18.97435931108904 a40.11295263529966,40.11295263529966 0 0,0 0.6847572721817766,0.08890114659449562 l -2.623802669232926 18.931999841330406" fill="#ffc712" stroke="none" /><path d="M 102.88285421437855 79.19881850522331 l 5.038711063643431 -36.35672688956274 a57.70422590527059,57.70422590527059 0 0,0 0.9827057687655759,0.1448252853537745 l -5.663785812837663 36.26460712004799" fill="#5dff2a" stroke="none" /><path d="M 103.59715602781102 79.31037775812273 l 6.162200560563614 -35.442888990925695 a56.97458958447883,56.97458958447883 0 0,0 0.9647829537809771,0.17630791806602775 l -6.771378635447492 35.331565591508934" fill="#65ff29" stroke="none" /><path d="M 103.95276090670814 79.375362276772 l 5.452860217112677 -28.451826251998423 a49.96964103369727,49.96964103369727 0 0,0 0.8433771090101043,0.16917351398751782 l -5.941803735589907 28.353748781933696" fill="#b7ff1f" stroke="none" /><path d="M 104.66035177308747 79.52364482259891 l 6.5877360171060975 -28.944772641455735 a50.6849815411201,50.6849815411201 0 0,0 0.8490369491860849,0.2009396145887078 l -7.084996653254706 28.827087114726158" fill="#aeff20" stroke="none" /><path d="M 105.71112130821622 79.79150937346287 l 8.066568192384041 -28.543110696948254 a50.6610635456759,50.6610635456759 0 0,0 0.837137363375458,0.24438335218727245 l -8.556695773482927 28.40002901584228" fill="#afff20" stroke="none" /><path d="M 106.0581310904928 79.89281104454417 l 8.42305936252437 -27.956484211952258 a50.19782420862461,50.19782420862461 0 0,0 0.8251915797577728,0.2563910406575247 l -8.90303631499286 27.807353036412213" fill="#b4ff20" stroke="none" /><path d="M 107.08798089147638 80.2323363322302 l 10.053044403196276 -28.036926685075517 a50.784777315214825,50.784777315214825 0 0,0 0.8203378117630853,0.3021373391879253 l -10.534164540731938 27.85972607808127" fill="#adff20" stroke="none" /><path d="M 109.08828744355905 81.06846463323043 l 6.066115980806148 -12.636141841106305 a35.01677008875972,35.01677008875972 0 0,0 0.5411403823948667,0.2655352354942832 l -6.282727630211447 12.52985144547719" fill="#ff7f0b" stroke="none" /><path d="M 110.05341064243156 81.56283822128135 l 10.590261138732949 -19.421703224734845 a43.121396590998344,43.121396590998344 0 0,0 0.6486195442222688,0.3609560741142122 l -10.923004772027252 19.236531753060454" fill="#ffef16" stroke="none" /><line stroke="#e1ed5e" stroke-width="0.3" x1="143.23703022742887" x2="145.7803849466894" y1="26.81831364943548" y2="22.513508569990506" /><path d="M 143.74570117128098 25.957352633546492 a86.0,86.0 0 0,1 28.547481713284135,27.462654790039103" fill="none" id="id62" stroke="none" /><text fill="#e1ed5e" style="font-size:6.75px; font-family:Arial;" text-anchor="middle"><textPath startOffset="19.985693538727396" xlink:href="#id62">February</textPath></text><path d="M 115.9244219780498 86.31012108654704 l 16.715577181970673 -14.370017819490117 a43.0433194564449,43.0433194564449 0 0,0 0.47816902807009815,0.566001306959648 l -16.96045682352789 14.080157562901363" fill="#ffee16" stroke="none" /><path d="M 116.15771136456269 86.58626213691792 l 17.932000932362445 -14.886709784579889 a44.30602466420548,44.30602466420548 0 0,0 0.48209492599384635,0.5909913757227563 l -18.1855943504327 14.575834239249032" fill="#ffff18" stroke="none" /><path d="M 116.38621287248628 86.86637796730983 l 12.954345337413944 -10.38296503691899 a37.60183803314743,37.60183803314743 0 0,0 0.4004522684895289,0.508533714417133 l -13.131151686497436 10.158438928548817" fill="#ffa40f" stroke="none" /><path d="M 116.60985879189232 87.15038557335679 l 15.773994926838066 -12.20297868375817 a40.94320948864975,40.94320948864975 0 0,0 0.42644119045771767,0.5611466197678819 l -15.981712057519898 11.929647288109255" fill="#ffd213" stroke="none" /><path d="M 116.82858285166822 87.43820079747576 l 17.974634326995854 -13.41727637702652 a43.43013117586992,43.43013117586992 0 0,0 0.44203060836766395,0.6029292530495045 l -18.202927547877145 13.105884680305522" fill="#fff417" stroke="none" /><path d="M 117.04232023915458 87.72973835380427 l 20.135711307097377 -14.497465292472596 a45.811758699238084,45.811758699238084 0 0,0 0.45525409072003203,0.643924625771882 l -20.382278017621292 14.14871416636892" fill="#ebff1a" stroke="none" /><path d="M 117.2510076193507 88.02491185347247 l 21.040601364967756 -14.605700812444477 a46.61314900636242,46.61314900636242 0 0,0 0.45187127218253237,0.6630653339415081 l -21.28889710281902 14.241357455232562" fill="#e1ff1b" stroke="none" /><path d="M 117.45458315368197 88.32363383020206 l 34.31322525972689 -22.954073384148106 a62.28300997564998,62.28300997564998 0 0,0 0.5884361304383278,0.8962285969399884 l -34.70325802552314 22.360026723230444" fill="#30ff34" stroke="none" /><path d="M 117.65298651832404 88.62581576622439 l 19.484010687473894 -12.553950967001644 a44.17818710234859,44.17818710234859 0 0,0 0.40638126647888545,0.6427975708973585 l -19.697219550198735 12.21670574839008" fill="#fffd18" stroke="none" /><line stroke="#e1ed5e" stroke-width="0.3" x1="172.23445277983987" x2="176.4835382374775" y1="55.19839476539836" y2="52.563006222186495" /><path d="M 173.08426987136738 54.67131705675599 a86.0,86.0 0 0,1 12.851231095245387,41.99856678651699" fill="none" id="id63" stroke="none" /><text fill="#e1ed5e" style="font-size:6.75px; font-family:Arial;" text-anchor="middle"><textPath startOffset="22.20632615414155" xlink:href="#id63">March</textPath></text><path d="M 117.84615892207809 88.93136811851018 l 21.0870920324264 -13.078739250117922 a45.81368313565312,45.81368313565312 0 0,0 0.4098889182623844,0.6737496085889968 l -21.309096748975012 12.713821868321844" fill="#ebff1a" stroke="none" /><path d="M 118.03404312379186 89.2402003453031 l 35.45259714717624 -21.152374979021804 a62.28328489513785,62.28328489513785 0 0,0 0.5413910047531337,0.9254127215957461 l -35.8114478263997 20.538982845072162" fill="#30ff34" stroke="none" /><path d="M 118.21658344932153 89.55222093294921 l 19.23775762168289 -11.033454321221862 a43.17720524703479,43.17720524703479 0 0,0 0.3642148561838324,0.6478975889652668 l -19.424830119159154 10.700673222321802" fill="#fff016" stroke="none" /><path d="M 118.3937258080291 89.86733742301442 l 12.832456759559065 -7.069092783888919 a35.65073442777472,35.65073442777472 0 0,0 0.29147344562677896,0.540056027601874 l -12.95223830440431 6.8471557729545856" fill="#ff880c" stroke="none" /><path d="M 118.56541770881063 90.18545643968196 l 21.93697106226049 -11.596903525085565 a45.81368313565312,45.81368313565312 0 0,0 0.36256199853985766,0.7003543800126605 l -22.133342493960463 11.21757642281256" fill="#ebff1a" stroke="none" /><path d="M 118.73160827565052 90.50648371742162 l 27.50078472077479 -13.93789276864918 a51.831120886026234,51.831120886026234 0 0,0 0.3964833613210282,0.7992862626805434 l -27.736628095049227 13.462446917469686" fill="#a0ff22" stroke="none" /><path d="M 118.89224826269711 90.83032412892265 l 25.53641548351107 -12.394536088926445 a49.3854371219857,49.3854371219857 0 0,0 0.36460987472890694,0.7679613832900779 l -25.745983552081732 11.953132289995827" fill="#beff1f" stroke="none" /><path d="M 119.04729006885535 91.15688171328212 l 37.48091558060007 -17.401329468683414 a62.32342314036603,62.32342314036603 0 0,0 0.4433797626706481,0.9769285348300852 l -37.77489766023407 16.75357892501127" fill="#30ff35" stroke="none" /><path d="M 119.196687751892 91.48605970444005 l 22.709269962090133 -10.071808799095162 a45.84254968187887,45.84254968187887 0 0,0 0.3137142987516407,0.7240958544671611 l -22.879274970684456 9.679413800041399" fill="#ebff1a" stroke="none" /><path d="M 119.34039704204932 91.81776055985345 l 22.87598346227262 -9.678021278994063 a45.83897572853664,45.83897572853664 0 0,0 0.30118021647085835,0.7293317835846628 l -23.039185365629677 9.282814924956096" fill="#ebff1a" stroke="none" /><path d="M 119.47837535516314 92.15188598940014 l 25.546338332036665 -10.292982455029904 a48.54198413321813,48.54198413321813 0 0,0 0.3055982573310282,0.7777142317121087 l -25.719730139249393 9.85171921842201" fill="#c9ff1d" stroke="none" /><path d="M 119.61058180528143 92.48833698450437 l 20.58384543505418 -7.884463194739785 a43.04221977849343,43.04221977849343 0 0,0 0.25906376574791246,0.6941620938035306 l -20.71651378930372 7.528977963906922" fill="#ffee16" stroke="none" /><path d="M 119.7369772167798 92.82701384747503 l 25.915990035386244 -9.418617431181815 a48.574424632786105,48.574424632786105 0 0,0 0.27883320194849825,0.7882990099911917 l -26.074276318144552 8.971120794764008" fill="#c8ff1d" stroke="none" /><path d="M 119.85752413597 93.16781622104841 l 13.244328570094819 -4.556846372191843 a35.00632314822087,35.00632314822087 0 0,0 0.19113903558452072,0.5714813877620635 l -13.32080489945111 4.328191881507466" fill="#ff7e0b" stroke="none" /><path d="M 119.97218684219823 93.5106431181261 l 29.0996325845371 -9.455043779856979 a51.59716440185374,51.59716440185374 0 0,0 0.26718612770532946,0.8470530400194175 l -29.25807419601064 8.952740573411143" fill="#a3ff21" stroke="none" /><path d="M 120.08093135843002 93.85539295169968 l 26.923895295014386 -8.238500189285014 a49.156154269106906,49.156154269106906 0 0,0 0.24061727521579096,0.8112418347726935 l -27.06171846734188 7.773828967765792" fill="#c1ff1e" stroke="none" /><path d="M 120.18372546131832 94.20196356495316 l 14.706961687370931 -4.224765139400837 a36.30174377503731,36.30174377503731 0 0,0 0.16735662137779939,0.6020708106203296 l -14.777505079315095 3.9709830253615555" fill="#ff910d" stroke="none" /><path d="M 120.37134235888165 94.90015583598534 l 13.541158173909036 -3.389948255280335 a34.95903699630822,34.95903699630822 0 0,0 0.14111331770264104,0.5850058041651383 l -13.597504291872495 3.1563572194557907" fill="#ff7e0b" stroke="none" /><path d="M 120.45610955862082 95.25157060432595 l 14.371443974856474 -3.3360100478994585 a35.753554316235956,35.753554316235956 0 0,0 0.13400025758644266,0.60069687994996 l -14.426738619444954 3.0881349983995348" fill="#ff890c" stroke="none" /><path d="M 120.53481517161879 95.60439243477599 l 18.850329115726833 -4.0350326299781125 a40.277354489042494,40.277354489042494 0 0,0 0.13928427817502506,0.6791996061859921 l -18.916992689816855 3.709957367628709" fill="#ffc912" stroke="none" /><path d="M 120.6074358757038 95.95851677861258 l 19.096936131404238 -3.745247464094885 a40.460725787447956,40.460725787447956 0 0,0 0.12815313742065662,0.6845991844788605 l -19.158574992734753 3.4159702021534617" fill="#ffcc13" stroke="none" /><path d="M 120.67395015179393 96.31383870115 l 22.021792318629924 -3.926481295554532 a43.369099049564056,43.369099049564056 0 0,0 0.12471329329277325,0.7360649166287009 l -22.086117473442922 3.5468305906099933" fill="#fff316" stroke="none" /><path d="M 120.73433829027371 96.67025291283417 l 23.14121098448282 -3.7162690600653066 a44.437711098892464,44.437711098892464 0 0,0 0.11478494934104423,0.756289399524209 l -23.201751827263163 3.317380548149015" fill="#fdff18" stroke="none" /><path d="M 120.78858239683441 97.02765380044208 l 30.29892476136952 -4.332132520919828 a51.60706150341686,51.60706150341686 0 0,0 0.11816542828345723,0.8804696931721442 l -30.369006188710816 3.8099444856830194" fill="#a3ff21" stroke="none" /><path d="M 120.83666639777658 97.38593545837742 l 27.98544387383934 -3.510914611560822 a49.20481501845887,49.20481501845887 0 0,0 0.09819792514034847,0.8412998541402374 l -28.04173215198328 3.0286710190957318" fill="#c0ff1e" stroke="none" /><path d="M 120.87857604477298 97.74499172005257 l 27.999366020926022 -3.024095229246914 a49.162202497839914,49.162202497839914 0 0,0 0.08362929433405518,0.8421355810922174 l -28.047272440942304 2.541684117450261" fill="#c1ff1e" stroke="none" /><path d="M 120.91429891909075 98.10471618934814 l 31.065342728496805 -2.8151859822529155 a52.19264001256775,52.19264001256775 0 0,0 0.07338164939020737,0.8954419914625288 l -31.109198861706506 2.280030073582618" fill="#9cff22" stroke="none" /><path d="M 120.94382443527127 98.46500227214037 l 41.4229068704668 -3.035933963446833 a62.53401146807006,62.53401146807006 0 0,0 0.06944077093135698,1.074217991095382 l -41.46902823240257 2.322456908098416" fill="#30ff37" stroke="none" /><path d="M 120.96714384426684 98.82574320788733 l 30.76010055010179 -1.7227075497410773 a51.80830256853349,51.80830256853349 0 0,0 0.04220252954737547,0.890828697248217 l -30.78519668788266 1.1929677458698604" fill="#a1ff22" stroke="none" /><path d="M 120.98425023603335 99.18683210126433 l 31.95327764517345 -1.2382324528243296 a52.977260230932366,52.977260230932366 0 0,0 0.027468218871295007,0.9115364585271548 l -31.96985755850039 0.6880258468721757" fill="#93ff23" stroke="none" /><line stroke="#e1ed5e" stroke-width="0.3" x1="184.98032266829074" x2="189.97916517819016" y1="98.17113171792111" y2="98.06355123074" /><path d="M 185.9800911702706 98.14961562048488 a86.0,86.0 0 0,1 -9.607161424134198,41.387399972396054" fill="none" id="id64" stroke="none" /><text fill="#e1ed5e" style="font-size:6.75px; font-family:Arial;" text-anchor="middle"><textPath startOffset="21.466115282336823" xlink:href="#id64">April</textPath></text><path d="M 120.99513854157772 99.54816195383933 l 30.746199338576524 -0.6616914010115822 a51.75331867096064,51.75331867096064 0 0,0 0.011501541422474865,0.8908070583140358 l -30.753033887116715 0.1323480846370836" fill="#a1ff22" stroke="none" /><path d="M 120.99980553446 99.90962569577887 l 29.113154327864315 -0.1252907347996914 a50.11342392585028,50.11342392585028 0 0,0 -0.00371245663970142,0.8626441792359794 l -29.110997573935112 -0.37586292263997273" fill="#b5ff1f" stroke="none" /><path d="M 120.99824983174949 100.27111621757518 l 58.38445902411148 0.75382347684315 a79.38932526902835,79.38932526902835 0 0,0 -0.029404056924859815,1.366290984275144 l -58.362832904501616 -1.758704276908409" fill="#47fffd" stroke="none" /><path d="M 120.9904718944345 100.63252640178507 l 30.73606775933278 0.9261999655180518 a51.75001963710628,51.75001963710628 0 0,0 -0.03449475713465903,0.8901564076378462 l -30.715570869346916 -1.4551336201699043" fill="#a1ff22" stroke="none" /><path d="M 120.9764740272857 100.99374915477107 l 29.15275682371966 1.3810961468135017 a50.185452831670716,50.185452831670716 0 0,0 -0.048306244480468614,0.8625404454983087 l -29.124664228351662 -1.8827083086472336" fill="#b4ff20" stroke="none" /><path d="M 120.95626037817324 101.35467743843564 l 50.180238175201076 3.243805683101434 a71.28497368627758,71.28497368627758 0 0,0 -0.08969496763398038,1.2238165703820916 l -50.11696664890276 -4.107095389980296" fill="#3cffa4" stroke="none" /><path d="M 120.92983693683757 101.71520430193887 l 30.693038959896715 2.5153006505719415 a51.7959311915796,51.7959311915796 0 0,0 -0.08046967458714813,0.8879761536393462 l -30.64519468903249 -3.0432581927598585" fill="#a1ff22" stroke="none" /><path d="M 120.89721153311464 102.0752229133903 l 30.73082330173463 3.0517616459042993 a51.881980991281125,51.881980991281125 0 0,0 -0.0959018616975099,0.8879321331509415 l -30.67373913853607 -3.580290100940032" fill="#a0ff22" stroke="none" /><path d="M 120.8583938346157 102.4346265915055 l 34.52696872773124 4.0300454989545145 a55.76136988453381,55.76136988453381 0 0,0 -0.1194846422443941,0.9524101606759912 l -34.452482576239994 -4.6237734139179" fill="#73ff27" stroke="none" /><path d="M 120.81339534386255 102.79330883721812 l 57.61326357830399 7.7321184571506505 a79.12980127248449,79.12980127248449 0 0,0 -0.19279768452259122,1.3484265565070923 l -57.4716318427648 -8.722690485638152" fill="#46fffb" stroke="none" /><path d="M 120.76222939487914 103.15116336523771 l 29.233901766512602 4.436941646175686 a50.56869059775351,50.56869059775351 0 0,0 -0.13802422044333523,0.8594769524550556 l -29.15319579170798 -4.9394978283239475" fill="#b0ff20" stroke="none" /><path d="M 120.70491114924044 103.5080841355445 l 31.8445143946039 5.395494573562882 a53.298366192757825,53.298366192757825 0 0,0 -0.16104623583043778,0.9032328164074789 l -31.746921716434276 -5.942846140703579" fill="#8fff24" stroke="none" /><path d="M 120.64145759157962 103.86396538481128 l 30.34147803652166 5.67975494642186 a51.86850993637577,51.86850993637577 0 0,0 -0.17183312917743304,0.8761734236842479 l -30.23921497436856 -6.2011920971740535" fill="#a0ff22" stroke="none" /><path d="M 120.5718875245553 104.21870165774334 l 33.295939025944804 6.828038166026813 a54.98884612363522,54.98884612363522 0 0,0 -0.19813256673231144,0.9256093900455149 l -33.17347242048805 -7.400161375488497" fill="#7bff26" stroke="none" /><path d="M 120.49622156327973 104.57218783832717 l 31.73686400729977 7.079690429419797 a53.51692718560992,53.51692718560992 0 0,0 -0.20830682577559845,0.8973803535451386 l -31.610296615593615 -7.6249394403135" fill="#8cff24" stroke="none" /><path d="M 120.41448212921028 104.9243191809786 l 34.169790441051774 8.242332742701793 a56.14983112088602,56.14983112088602 0 0,0 -0.2347295179360416,0.9376277426967827 l -34.02284960882067 -8.829288324795971" fill="#6eff28" stroke="none" /><path d="M 120.32669344350535 105.2749913415812 l 56.27747348458056 14.604597948127179 a79.14162281046264,79.14162281046264 0 0,0 -0.353544184632523,1.3156694326825407 l -56.017741223606265 -15.571158313985269" fill="#46fffb" stroke="none" /><path d="M 120.23288151984713 105.62410040840565 l 29.77771808109776 8.277262744657037 a51.906723745188906,51.906723745188906 0 0,0 -0.24669872499471407,0.8587906255387948 l -29.630826719216945 -8.788610845700413" fill="#a0ff22" stroke="none" /><path d="M 120.13307415673323 105.97154293290107 l 32.643434233832984 9.682161178523959 a55.049053491477494,55.049053491477494 0 0,0 -0.27727219325124375,0.9061415704067988 l -32.47193526807561 -10.242629721482816" fill="#7bff26" stroke="none" /><path d="M 120.02730092923936 106.31721596034902 l 44.577039395834355 14.060945393062866 a67.74208624617074,67.74208624617074 0 0,0 -0.36034837933442804,1.1090382747253604 l -44.32839876548368 -14.826182567766022" fill="#37ff79" stroke="none" /><path d="M 119.9155931802556 106.66101706037122 l 28.758798603866072 9.618736755782306 a51.32471918938025,51.32471918938025 0 0,0 -0.28744083694928707,0.8354376202479317 l -28.588966935973552 -10.11234707911954" fill="#a7ff21" stroke="none" /><path d="M 119.79798401119884 107.00284435728193 l 28.97722368523096 10.249679323866069 a51.736548582200925,51.736548582200925 0 0,0 -0.30420040805839277,0.8370288741000994 l -28.79649901616734 -10.7469559949723" fill="#a2ff22" stroke="none" /><path d="M 119.67450827220406 107.3425965602758 l 30.924517073729586 11.541139913242644 a54.007933390935506,54.007933390935506 0 0,0 -0.3325492730848008,0.8681812150869123 l -30.721273521051277 -12.0717446951627" fill="#87ff25" stroke="none" /><path d="M 119.54520255179757 107.68017299344265 l 54.077465610283376 21.249423731130616 a79.10258424318593,79.10258424318593 0 0,0 -0.5088834446066095,1.2630069762860638 l -53.70367955141937 -22.177130075259495" fill="#46fffa" stroke="none" /><path d="M 119.41010516605496 108.01547362559984 l 28.663104007684645 11.836533199377651 a52.01091823108946,52.01091823108946 0 0,0 -0.34884222857790487,0.8245599820297069 l -28.455110797914433 -12.328167707073522" fill="#9eff22" stroke="none" /><path d="M 119.26925614724726 108.34839909993367 l 29.941940789429566 12.972336328221493 a53.63129369256146,53.63129369256146 0 0,0 -0.3742925822876349,0.8439309627026743 l -29.71420712241066 -13.485815627416855" fill="#8bff24" stroke="none" /><path d="M 119.12269723197855 108.67885076344098 l 45.32734641844404 20.571850837580023 a70.77719739219228,70.77719739219228 0 0,0 -0.5130517139061599,1.105067748530711 l -44.96652008769805 -21.349038653389567" fill="#3bff9e" stroke="none" /><path d="M 118.97047184881838 109.00673069616215 l 30.428849433202704 14.446896968247733 a54.6842353310816,54.6842353310816 0 0,0 -0.41103468864408627,0.8468532030600772 l -30.175661487943906 -14.968539127273086" fill="#7fff26" stroke="none" /><path d="M 118.81262510543309 109.33194174019688 l 29.99488926754504 14.878867652954435 a54.48244442698923,54.48244442698923 0 0,0 -0.4239806448359168,0.8365540353154616 l -29.734329952922852 -15.39297589997259" fill="#81ff25" stroke="none" /><path d="M 118.64920377521936 109.65438752849418 l 27.881030842383094 14.43355328681312 a52.39553059461157,52.39553059461157 0 0,0 -0.4215282606755001,0.7973726121253775 l -27.6284500734827 -14.911340914024633" fill="#9aff23" stroke="none" /><line stroke="#e1ed5e" stroke-width="0.3" x1="174.80103733775053" x2="179.2010983576182" y1="140.37084112569926" y2="142.7455964860345" /><path d="M 175.68104954172406 140.8457921977663 a86.0,86.0 0 0,1 -30.038265399797805,32.042727171017184" fill="none" id="id65" stroke="none" /><text fill="#e1ed5e" style="font-size:6.75px; font-family:Arial;" text-anchor="middle"><textPath startOffset="22.206326154141568" xlink:href="#id65">May</textPath></text><path d="M 118.48025628344425 109.97397251340804 l 51.543236203953995 27.818381588727743 a79.57104705050662,79.57104705050662 0 0,0 -0.6609079871548683,1.1997399703878942 l -51.05675180734762 -28.701492077513443" fill="#47ffff" stroke="none" /><path d="M 118.30583269289576 110.29060199501025 l 29.189015214332606 16.408570057212742 a54.484918702380014,54.484918702380014 0 0,0 -0.46661923182966325,0.8135899621471188 l -28.902243986350562 -16.908579865218176" fill="#81ff25" stroke="none" /><path d="M 118.12598468904814 110.60418214915192 l 30.727751281049166 17.976550085853187 a56.59987432251983,56.59987432251983 0 0,0 -0.4992085313146437,0.8367022129044152 l -30.413761874036293 -18.502814392643707" fill="#69ff28" stroke="none" /><path d="M 117.94076556474637 110.91462005526583 l 47.6919596952413 29.01434823871013 a76.82432644725472,76.82432644725472 0 0,0 -0.697035748661606,1.1238435678565948 l -47.18545930691173 -29.830988137932" fill="#43ffe2" stroke="none" /><path d="M 117.75023020441432 111.22182372390056 l 25.617300656728197 16.195442478288175 a51.307399261644804,51.307399261644804 0 0,0 -0.4783685356286653,0.7424385904676118 l -25.33472725772248 -16.63400266867724" fill="#a7ff21" stroke="none" /><path d="M 117.55443506779139 111.5257021239791 l 26.111952133999154 17.144304616459515 a52.23717696960175,52.23717696960175 0 0,0 -0.49997668347621677,0.7473973040697095 l -25.812972345112215 -17.591238834735034" fill="#9cff22" stroke="none" /><path d="M 117.35343817320211 111.8261652097733 l 27.455490057680635 18.710595450694253 a54.22484486686041,54.22484486686041 0 0,0 -0.5322790633394524,0.7667876899889304 l -27.129350087179045 -19.1804244028702" fill="#84ff25" stroke="none" /><path d="M 117.14729908036423 112.12312394758627 l 48.98471482895348 34.63214624212153 a80.99073128583771,80.99073128583771 0 0,0 -0.8146132894212573,1.1314266109144038 l -48.38132174715662 -35.47020645848706" fill="#49f0ff" stroke="none" /><path d="M 116.93607887273984 112.41649034213515 l 40.60725668922876 29.770740576436893 a71.35122928285287,71.35122928285287 0 0,0 -0.7347094971367696,0.9842634359247758 l -40.088785925396905 -30.465316891870984" fill="#3cffa4" stroke="none" /><path d="M 116.71984013943494 112.70617746262583 l 26.8888545294785 20.43408038408618 a54.772209567198175,54.772209567198175 0 0,0 -0.5769161601032156,0.7457419060144093 l -26.533131552157215 -20.89390028421384" fill="#7eff26" stroke="none" /><path d="M 116.498646956653 112.99209946851258 l 45.68543724875521 35.97566191686833 a79.14987039509856,79.14987039509856 0 0,0 -0.8521127599767422,1.0631416863974363 l -45.05940657672361 -36.75673143684402" fill="#46fffb" stroke="none" /><path d="M 116.27256486870786 113.27417163493432 l 26.219821486143566 21.388540371635067 a54.83709056633414,54.83709056633414 0 0,0 -0.6029573126650757,0.7263009254123093 l -25.847768173584946 -21.836702554161146" fill="#7dff26" stroke="none" /><path d="M 116.0416608686014 113.55231037782055 l 25.881789447911576 21.865444395352036 a54.88162752336816,54.88162752336816 0 0,0 -0.6158698387061056,0.7163957590210575 l -25.50157709963469 -22.307717253534623" fill="#7dff26" stroke="none" /><path d="M 115.80600337817218 113.82643327865902 l 28.39787523390374 24.841278201894138 a58.729675595004316,58.729675595004316 0 0,0 -0.6721503710611071,0.7551680673043148 l -27.966066013194297 -25.32642043893932" fill="#51ff2b" stroke="none" /><path d="M 115.56566222782051 114.09645910891815 l 25.362822814697093 22.968890719927597 a55.21757913753829,55.21757913753829 0 0,0 -0.6440830643581185,0.6990249584105975 l -24.963693342343255 -23.402066933139526" fill="#79ff26" stroke="none" /><path d="M 115.32070863581623 114.36230785411682 l 25.737490817233674 24.12745880732044 a56.27821852171864,56.27821852171864 0 0,0 -0.6686212772015152,0.7010467360331492 l -25.318362988653192 -24.566912659936097" fill="#6dff28" stroke="none" /><path d="M 115.07121518719521 114.62390073753431 l 25.25364748343757 24.504117914277053 a56.18804492969915,56.18804492969915 0 0,0 -0.6794990842713275,0.6883289848955535 l -24.82810777411071 -24.93518739315327" fill="#6eff28" stroke="none" /><path d="M 114.81725581225074 114.88116024355365 l 38.89447209774805 39.06221767437356 a76.12383159217657,76.12383159217657 0 0,0 -0.9365045484369446,0.9165668087248242 l -38.21631759693531 -39.725934586020955" fill="#42ffda" stroke="none" /><path d="M 114.55890576462653 115.13401014063108 l 25.278244637042427 26.276783218410156 a57.46174691697431,57.46174691697431 0 0,0 -0.7187210384949352,0.6795956022022978 l -24.822187764156684 -26.708013457358373" fill="#5fff29" stroke="none" /><path d="M 114.29624159901734 115.38237550388516 l 24.58150273422533 26.449042770347713 a57.108200455580864,57.108200455580864 0 0,0 -0.7258192586062465,0.6630186837282863 l -24.12258392615222 -26.868254220662582" fill="#63ff29" stroke="none" /><path d="M 114.0293411484842 115.62618273729858 l 22.5803592040327 25.150491064520146 a54.7997015159846,54.7997015159846 0 0,0 -0.7073275311592421,0.6241343066861685 l -22.14408931996687 -25.5354485129786" fill="#7eff26" stroke="none" /><path d="M 113.75828350139079 115.86535959552629 l 33.07474350854727 38.14012839900096 a71.48374047600345,71.48374047600345 0 0,0 -0.936554517540726,0.7981520779645488 l -32.4133235144295 -38.70380486718845" fill="#3cffa6" stroke="none" /><path d="M 113.48314897796784 116.09983520530334 l 21.844939533623222 26.084405589217006 a55.02348597910611,55.02348597910611 0 0,0 -0.7313665984938514,0.6018649193759181 l -21.39270280658468 -26.456565627450104" fill="#7bff26" stroke="none" /><path d="M 113.20401910651253 116.32954008644616 l 24.207886939392562 29.938131488312855 a59.50082475846359,59.50082475846359 0 0,0 -0.8019648869057641,0.6371294084239334 l -23.68896455976945 -30.350394810741914" fill="#49ff2c" stroke="none" /><path d="M 112.92097659922987 116.55440617244103 l 32.2251382447842 41.28697419814359 a73.37436179404602,73.37436179404602 0 0,0 -1.0023331649445903,0.7685463292007111 l -31.509676351346116 -41.835559869171675" fill="#3fffbc" stroke="none" /><path d="M 112.63410532772338 116.77436683061366 l 26.52507142031688 35.21747418365072 a65.08911318828058,65.08911318828058 0 0,0 -0.9007559311734085,0.6663577038491151 l -25.91493051872491 -35.66884183623961" fill="#34ff58" stroke="none" /><path d="M 112.34349029814194 116.9893568818739 l 21.035449553067664 28.952812453825754 a56.787644332731126,56.787644332731126 0 0,0 -0.7957643734742825,0.5677567516193572 l -20.5339578517445 -29.31061346728933" fill="#67ff28" stroke="none" /><path d="M 112.04921762599082 117.19931262002967 l 20.75179841862185 29.621563781853006 a57.16730814547168,57.16730814547168 0 0,0 -0.8108042455129003,0.5576785533716072 l -20.238837288486064 -29.974383124589707" fill="#63ff29" stroke="none" /><path d="M 111.7513745106137 117.40417183066458 l 32.53496629785717 48.185354269950466 a79.14079805199904,79.14079805199904 0 0,0 -1.1355773721418225,0.7525987611141209 l -31.700714226975382 -48.73825105215591" fill="#46fffb" stroke="none" /><path d="M 111.45004920935366 117.60387380957326 l 19.68300423742872 30.26162739160402 a57.09967795145707,57.09967795145707 0 0,0 -0.8285386175746959,0.5288125466840807 l -19.159183817807094 -30.59595436711191" fill="#63ff29" stroke="none" /><path d="M 111.1453310114006 117.79835938074945 l 19.36272552389072 30.920997062581574 a57.483190637027725,57.483190637027725 0 0,0 -0.8431437319267095,0.5179277443823159 l -18.827602592031702 -31.249713273792267" fill="#5fff29" stroke="none" /><line stroke="#e1ed5e" stroke-width="0.3" x1="143.8653032363475" x2="146.44561519142675" y1="172.8068346515853" y2="177.08958963109032" /><path d="M 144.38136562736335 173.6633856474863 a86.0,86.0 0 0,1 -40.68145358897372,12.25698825130547" fill="none" id="id66" stroke="none" /><text fill="#e1ed5e" style="font-size:6.75px; font-family:Arial;" text-anchor="middle"><textPath startOffset="21.466115282336833" xlink:href="#id66">June</textPath></text><path d="M 110.8373102113329 117.98757091392108 l 30.003144253418515 49.79867461342994 a79.13859869609614,79.13859869609614 0 0,0 -1.1728797407626907,0.6929580245195319 l -29.141496641627445 -50.30775121024322" fill="#46fffb" stroke="none" /><path d="M 110.5260780823613 118.17145234162733 l 18.033759936146115 31.13216590794235 a56.97816353782106,56.97816353782106 0 0,0 -0.8529121888895059,0.4843058004922377 l -17.495198980335413 -31.43797487422922" fill="#65ff29" stroke="none" /><path d="M 110.21172684928248 118.3499491758327 l 18.726980343272196 33.65142277968471 a59.511271699002435,59.511271699002435 0 0,0 -0.8994057178071552,0.4904277091988846 l -18.14495181359639 -33.96879114064336" fill="#49ff2c" stroke="none" /><path d="M 109.89434966115114 118.52300852407294 l 15.612751652233785 29.22831129306524 a54.13687063074384,54.13687063074384 0 0,0 -0.825739627227306,0.43198794610040203 l -15.107321122479982 -29.49272865811036" fill="#85ff25" stroke="none" /><path d="M 109.57404056367764 118.69057910512821 l 24.80845404773656 48.43141929169405 a75.41563899143821,75.41563899143821 0 0,0 -1.160489001890043,0.5818932769041598 l -23.97111113816376 -48.85128040950751" fill="#41ffd3" stroke="none" /><path d="M 109.2508944713604 118.85261126421891 l 16.034714200279993 32.67751399463052 a57.39961511271699,57.39961511271699 0 0,0 -0.8907527346141362,0.42761544356932363 l -15.469848797665625 -32.94868371469941" fill="#60ff29" stroke="none" /><path d="M 108.92500713936063 119.00905698771935 l 15.411895723265568 32.82525151160056 a57.26325504673631,57.26325504673631 0 0,0 -0.8958481880659863,0.4112399645621621 l -14.84457953943216 -33.0856785464968" fill="#62ff29" stroke="none" /><path d="M 108.59647513512805 119.15986991738527 l 23.814799783922656 53.07855356947257 a79.17626266593354,79.17626266593354 0 0,0 -1.2482677917408453,0.5472039166902792 l -22.897611317524056 -53.4806220394573" fill="#47fffb" stroke="none" /><path d="M 108.2653958097858 119.30500536409082 l 14.219194590214727 33.21094768530634 a57.12689498075563,57.12689498075563 0 0,0 -0.9073071383987257,0.37925445743545505 l -13.64541599231854 -33.45078718576177" fill="#63ff29" stroke="none" /><path d="M 107.93186726928326 119.44442032107085 l 13.648531170729223 33.45842382872817 a57.135142565391554,57.135142565391554 0 0,0 -0.9138328669075372,0.3636329571035101 l -13.07057722777982 -33.68840363023775" fill="#63ff29" stroke="none" /><path d="M 107.59598834532513 119.57807347666477 l 13.12805479256392 33.836547615647554 a57.294046029377114,57.294046029377114 0 0,0 -0.9225153874125684,0.3488163830155762 l -12.543669184391076 -34.05751224876976" fill="#61ff29" stroke="none" /><path d="M 107.2578585660854 119.70592522655815 l 5.354791914864962 14.538879218615154 a36.49363757756657,36.49363757756657 0 0,0 -0.5913367156720748,0.21203230748740046 l -5.103735638563153 -14.628899067142516" fill="#ff940d" stroke="none" /><path d="M 106.91757812671514 119.82793768551818 l 11.916987710739816 34.15780572323493 a57.17693032754693,57.17693032754693 0 0,0 -0.9320663728027956,0.31620751936073443 l -11.327251604999795 -34.35787622949378" fill="#63ff29" stroke="none" /><path d="M 106.57524785965236 119.94407469862006 l 12.321897076922438 37.374839850347804 a60.35362500981855,60.35362500981855 0 0,0 -0.9894507065364815,0.3167908704095161 l -11.676725025295017 -37.58140356741703" fill="#40ff2d" stroke="none" /><path d="M 106.2309692047433 120.05430185196036 l 16.339062048654117 52.5870810037358 a76.06692325818867,76.06692325818867 0 0,0 -1.25374598842821,0.37774338167825255 l -15.431441085785663 -52.86053975451978" fill="#42ffda" stroke="none" /><path d="M 105.88484417918355 120.15858648285463 l 10.933948960365068 37.454340166950224 a60.01767339564841,60.01767339564841 0 0,0 -0.9942037112963568,0.2809718996448028 l -10.287614080964106 -37.63700085993355" fill="#43ff2d" stroke="none" /><path d="M 105.53697534728816 120.25689768951611 l 9.54853884936473 34.93311102616419 a57.21459429738433,57.21459429738433 0 0,0 -0.9522403579808868,0.251495333320686 l -8.945808048572346 -35.09229770878846" fill="#62ff29" stroke="none" /><path d="M 105.18746579009965 120.34920634021253 l 7.890060356941823 30.950848205411617 a52.94069593904642,52.94069593904642 0 0,0 -0.8849836863243176,0.21750745855240333 l -7.356123385874294 -31.082076922278052" fill="#93ff23" stroke="none" /><path d="M 104.83641907484287 120.43548508189849 l 13.385533430373764 56.55834709454823 a79.12072892938497,79.12072892938497 0 0,0 -1.3280220339503557,0.3022534912585649 l -12.409991247030545 -56.780377319384485" fill="#46fffb" stroke="none" /><path d="M 104.48393922423573 120.51570834832081 l 8.586791162270602 39.287799036372746 a61.21522268478517,61.21522268478517 0 0,0 -1.0313556417323346,0.216130602408085 l -7.9092440591088895 -39.42978561950737" fill="#37ff2e" stroke="none" /><path d="M 104.13013068566511 120.58985236759428 l 7.034458308272667 35.06873488435554 a56.76730029062917,56.76730029062917 0 0,0 -0.9597252398336407,0.18393362637943944 l -6.429765453867322 -35.18462570908345" fill="#67ff28" stroke="none" /><path d="M 103.7750983002368 120.6578951692458 l 10.474803100527476 57.319668829713294 a79.26891053334381,79.26891053334381 0 0,0 -1.3443668579400216,0.2337354104436112 l -9.486587271115404 -57.49148281867791" fill="#47fffc" stroke="none" /><path d="M 103.41894727170886 120.7198165907248 l 4.6062197474157855 27.915033710165087 a49.29251433508758,49.29251433508758 0 0,0 -0.838358014907445,0.13093428022515421 l -4.125025868899824 -27.99018629773735" fill="#bfff1e" stroke="none" /><path d="M 103.06178313531738 120.77559828337769 l 4.056042956116313 27.522105698600157 a48.81937789647317,48.81937789647317 0 0,0 -0.832420162893936,0.11536584954730071 l -3.5816942020355462 -27.58784611364006" fill="#c5ff1e" stroke="none" /><path d="M 101.98527174616119 120.90594882070398 l 2.0959111542125117 22.07103959819903 a43.17033225983819,43.17033225983819 0 0,0 -0.740382879446017,0.0638833502072862 l -1.715683957024953 -22.103847200684978" fill="#fff016" stroke="none" /><path d="M 101.62511606390274 120.93702456842531 l 2.9816558809708598 38.413873212573904 a59.529416385201465,59.529416385201465 0 0,0 -1.022310684647646,0.07050453026092095 l -2.3199824355442833 -38.45950608735111" fill="#49ff2c" stroke="none" /><path d="M 101.26447882468166 120.96189622390904 l 2.8296409338855892 46.90836924214008 a67.99363757756655,67.99363757756655 0 0,0 -1.168881639879577,0.0604178293399144 l -2.0217712255925324 -46.9501268782422" fill="#38ff7c" stroke="none" /><path d="M 100.90346689309514 120.98055641714683 l 1.6808510343719645 39.03318453058899 a60.0693582593669,60.0693582593669 0 0,0 -1.0334207917653997,0.03559310158269002 l -1.0087098909319125 -39.05633443059777" fill="#43ff2d" stroke="none" /><line stroke="#e1ed5e" stroke-width="0.3" x1="102.19456741930631" x2="102.32365962044197" y1="184.97166512339345" y2="189.96999836594603" /><path d="M 102.22038585953345 185.97133177190398 a86.0,86.0 0 0,1 -42.740103519485714,-10.115201625700543" fill="none" id="id67" stroke="none" /><text fill="#e1ed5e" style="font-size:6.75px; font-family:Arial;" text-anchor="middle"><textPath startOffset="22.20632615414155" xlink:href="#id67">July</textPath></text><path d="M 100.54218724476979 120.99299961872073 l 0.7129152551178672 27.603433727446024 a48.612638441599245,48.612638441599245 0 0,0 -0.8366936720698687,0.014404440343945136 l -0.23766189315533062 -27.61161564506913" fill="#c8ff1d" stroke="none" /><path d="M 100.18074693466247 120.99922214144158 l 0.2708056932471945 31.4622702746501 a52.46343570811405,52.46343570811405 0 0,0 -0.9031052558192783,0.0 l 0.2708056932471728 -31.4622702746501" fill="#99ff23" stroke="none" /><path d="M 99.81925306533755 120.99922214144158 l -0.3679442155125463 42.747847047232234 a63.74943052391799,63.74943052391799 0 0,0 -1.0972197113205113,-0.018889632375033924 l 1.1037236167257254 -42.73517993757804" fill="#32ff47" stroke="none" /><path d="M 99.45781275523022 120.99299961872073 l -0.8705687635301433 33.70763494928518 a54.7188751865525,54.7188751865525 0 0,0 -0.9413721897217519,-0.032422761611604185 l 1.4506613049265382 -33.68765538924748" fill="#7eff26" stroke="none" /><path d="M 99.09653310690486 120.98055641714683 l -1.4512526874397575 33.7013886364506 a54.73262116094572,54.73262116094572 0 0,0 -0.9409109183859887,-0.048634347013068804 l 2.031151674239235 -33.67141448267533" fill="#7eff26" stroke="none" /><path d="M 98.73552117531835 120.96189622390904 l -2.422781554509421 40.16365836067967 a61.23666640483857,61.23666640483857 0 0,0 -1.0516296338734583,-0.07252653665677712 l 3.1137739491618093 -40.11600347950661" fill="#37ff2e" stroke="none" /><path d="M 98.37488393609728 120.93702456842531 l -2.8032007511824437 36.11476392448511 a57.22339172099599,57.22339172099599 0 0,0 -0.981396651734206,-0.08467903261337582 l 3.424441720658191 -36.06116063959307" fill="#62ff29" stroke="none" /><path d="M 98.01472825383883 120.90594882070398 l -2.6012606139611143 27.392633461862115 a48.515866781871026,48.515866781871026 0 0,0 -0.8307011543898245,-0.08610557118459582 l 3.072394364956532 -27.343798522221757" fill="#c9ff1d" stroke="none" /><path d="M 97.65516085044442 120.86867818915974 l -5.1441508936857 45.78208683403793 a67.07018301783049,67.07018301783049 0 0,0 -1.1461737817154176,-0.1387856829206632 l 5.931452098452508 -45.68675562239192" fill="#36ff71" stroke="none" /><path d="M 97.2962882734958 120.8252237178851 l -7.47660214831523 57.58820767094211 a79.07151834105724,79.07151834105724 0 0,0 -1.3482499985418426,-0.18685516451592504 l 8.466780738043903 -57.450977940933576" fill="#46fffa" stroke="none" /><path d="M 96.93821686468263 120.77559828337769 l -4.913058446078074 33.33734758712553 a54.6974314664991,54.6974314664991 0 0,0 -0.9302838510744986,-0.14529120528414277 l 5.48617816076109 -33.24783807449428" fill="#7fff26" stroke="none" /><path d="M 96.58105272829116 120.7198165907248 l -5.488460860612594 33.26167190066827 a54.711452360380164,54.711452360380164 0 0,0 -0.9278828585908255,-0.1613243286349996 l 6.06019269067547 -33.162268993512264" fill="#7fff26" stroke="none" /><path d="M 96.22490169976321 120.6578951692458 l -7.938697735997918 43.441725901624125 a65.161142094101,65.161142094101 0 0,0 -1.1016340816619719,-0.21113079366172371 l 8.685299432231584 -43.29863790961393" fill="#34ff59" stroke="none" /><path d="M 95.86986931433489 120.58985236759428 l -6.633318838252635 33.06894284503967 a54.72767261016416,54.72767261016416 0 0,0 -0.92205323169396,-0.19322521965712172 l 7.2015635313759825 -32.94986164465601" fill="#7eff26" stroke="none" /><path d="M 95.51606077576429 120.51570834832081 l -7.1939323934822506 32.91494631874182 a54.69193307674181,54.69193307674181 0 0,0 -0.9179906857288337,-0.20893169135079928 l 7.759443228603947 -32.786237893813336" fill="#7fff26" stroke="none" /><path d="M 95.16358092515715 120.4354850818985 l -10.31909963080686 43.60164065617698 a65.80610321263057,65.80610321263057 0 0,0 -1.1000483988877725,-0.27036513240203985 l 11.068101314437843 -43.417554265460915" fill="#35ff61" stroke="none" /><path d="M 94.81253420990036 120.34920634021253 l -14.4747314093344 56.78096166529964 a79.59688948236587,79.59688948236587 0 0,0 -1.3247558855506916,-0.34988006989281556 l 15.44997773769658 -56.52339024610325" fill="#47feff" stroke="none" /><path d="M 94.46302465271185 120.25689768951611 l -8.897825005301598 32.55248930806421 a54.7466420548268,54.7466420548268 0 0,0 -0.9068881153241628,-0.2562956400511464 l 9.456844288730375 -32.39450487467454" fill="#7eff26" stroke="none" /><path d="M 94.11515582081647 120.15858648285463 l -9.455149389508762 32.38869898219917 a54.74059382609378,54.74059382609378 0 0,0 -0.9022423541529919,-0.2718382200994089 l 10.011266718101998 -32.22114539299404" fill="#7eff26" stroke="none" /><path d="M 93.76903079525671 120.05430185196036 l -2.5902416166237066 8.336662490602325 a29.729793417641975,29.729793417641975 0 0,0 -0.4873968232642854,-0.15604907132484133 l 2.7333597849789326 -8.290840572617777" fill="#ff3004" stroke="none" /><path d="M 93.42475214034765 119.94407469862007 l -3.540869016662731 10.74018161348593 a32.308813133296674,32.308813133296674 0 0,0 -0.5266802204001294,-0.17867852638894144 l 3.7252189700000864 -10.677640100198865" fill="#ff5708" stroke="none" /><path d="M 92.7421414339146 119.70592522655815 l -1.9609311272598438 5.324154751207119 a26.673788390542768,26.673788390542768 0 0,0 -0.42948581809434067,-0.16239478676267927 l 2.0522871661144673 -5.289611714337806" fill="#ff0000" stroke="none" /><path d="M 92.06813273071674 119.44442032107085 l -10.391612142359238 25.474313607347472 a48.512292828528786,48.512292828528786 0 0,0 -0.7704873439776635,-0.3220637722710383 l 10.828570945834363 -25.29166479205646" fill="#c9ff1d" stroke="none" /><path d="M 91.7346041902142 119.30500536409082 l -12.423089216891931 29.015888590203268 a52.56350640169664,52.56350640169664 0 0,0 -0.8286995350998626,-0.3632775229533411 l 12.920709426649537 -28.797746513955477" fill="#98ff23" stroke="none" /><path d="M 91.40352486487194 119.15986991738527 l -12.459070631526147 27.76884348982652 a51.43578666247741,51.43578666247741 0 0,0 -0.8046810515001495,-0.36938960363046486 l 12.935219678793716 -27.55026681586198" fill="#a5ff21" stroke="none" /><path d="M 91.07499286063937 119.00905698771935 l -11.687359125179551 24.892492765265764 a48.49964653208703,48.49964653208703 0 0,0 -0.7526390672034835,-0.3613124900584688 l 12.114110860383278 -24.687625998707734" fill="#c9ff1d" stroke="none" /><path d="M 90.7491055286396 118.85261126421891 l -13.76322758355918 28.048399014507343 a52.24322519833477,52.24322519833477 0 0,0 -0.80391400347102,-0.4030991703213208 l 14.24399549471296 -27.80733200327672" fill="#9cff22" stroke="none" /><path d="M 90.42595943632237 118.69057910512821 l -11.397828486098929 22.25100400705685 a46.00035346791297,46.00035346791297 0 0,0 -0.7016348429890187,-0.36706218854126615 l 11.779154231614443 -22.051512399570868" fill="#e9ff1a" stroke="none" /><line stroke="#e1ed5e" stroke-width="0.3" x1="58.666819895761336" x2="56.23545636021788" y1="174.27360380694188" y2="178.64263932499728" /><path d="M 58.180547188652646 175.14741091055294 a86.0,86.0 0 0,1 -31.652253787137756,-30.449443065178592" fill="none" id="id68" stroke="none" /><text fill="#e1ed5e" style="font-size:6.75px; font-family:Arial;" text-anchor="middle"><textPath startOffset="22.20632615414155" xlink:href="#id68">August</textPath></text><path d="M 89.4739219176387 118.17145234162733 l -16.26025923025773 28.07052383168828 a53.43994972900793,53.43994972900793 0 0,0 -0.7920109202997796,-0.46793401203429674 l 16.74103802158589 -27.786471247360236" fill="#8dff24" stroke="none" /><path d="M 89.1626897886671 117.98757091392108 l -17.37962013429253 28.846378254973658 a54.677362343885,54.677362343885 0 0,0 -0.8019888045121197,-0.49264702661270404 l 17.87358813873696 -28.542942761532576" fill="#7fff26" stroke="none" /><path d="M 88.8546689885994 117.79835938074946 l -19.238411879745012 30.722476362552793 a57.248959233367366,57.248959233367366 0 0,0 -0.8307047472514688,-0.5301950731306763 l 19.764398429043407 -30.386766860598314" fill="#62ff29" stroke="none" /><path d="M 88.54995079064634 117.60387380957326 l -16.623152242160796 25.557259103242036 a51.48774644568377,51.48774644568377 0 0,0 -0.7387886051879106,-0.4896288026072136 l 17.060615546088666 -25.267332279543503" fill="#a5ff21" stroke="none" /><path d="M 87.95078237400918 117.19931262002967 l -6.4699121586107315 9.235291891487146 a32.27609771424083,32.27609771424083 0 0,0 -0.45228445338000384,-0.32269294858959713 l 6.627923939839623 -9.12255468105333" fill="#ff5608" stroke="none" /><path d="M 87.65650970185807 116.9893568818739 l -24.272654553233615 33.40844288891307 a62.295106433116004,62.295106433116004 0 0,0 -0.8620901999446997,-0.6377537202532046 l 24.84412972359688 -32.9856792199201" fill="#30ff34" stroke="none" /><path d="M 87.36589467227662 116.77436683061367 l -24.82295875664026 32.957570417857966 a62.25991673866938,62.25991673866938 0 0,0 -0.850503879938654,-0.6521301077910029 l 25.3865913650724 -32.525400968239595" fill="#30ff34" stroke="none" /><path d="M 87.07902340077011 116.55440617244103 l -25.463894618362904 32.62444220119859 a62.38555494462336,62.38555494462336 0 0,0 -0.8408458995116769,-0.668018836334063 l 26.021698010591937 -32.181289450859396" fill="#30ff35" stroke="none" /><path d="M 86.79598089348748 116.32954008644616 l -26.075630065696693 32.247987752995535 a62.47132982483701,62.47132982483701 0 0,0 -0.8303625839832907,-0.6833318758213355 l 26.626862778224673 -31.79436075831702" fill="#30ff37" stroke="none" /><path d="M 86.51685102203217 116.09983520530335 l -26.529956947458505 31.678648330284243 a62.32039902599952,62.32039902599952 0 0,0 -0.8164996802640974,-0.6958387411033436 l 27.071322104299657 -31.217285198957946" fill="#30ff35" stroke="none" /><path d="M 86.24171649860922 115.8653595955263 l -27.153995004139137 31.312619423218237 a62.44658707092922,62.44658707092922 0 0,0 -0.8060297600219035,-0.7112275477460981 l 27.688967117067627 -30.84056873369985" fill="#30ff36" stroke="none" /><path d="M 85.97065885151581 115.62618273729859 l -21.239062652211928 23.65652603780726 a52.79196449611185,52.79196449611185 0 0,0 -0.6709618623115271,-0.6129077528693684 l 21.64312406399031 -23.287425518351316" fill="#95ff23" stroke="none" /><line stroke="#e1ed5e" stroke-width="0.3" x1="26.63291911575756" x2="22.317208475507996" y1="142.92168965132927" y2="145.44649492493687" /><path d="M 25.769776987707644 143.4266507060508 a86.0,86.0 0 0,1 -11.730757126820373,-40.83630448921669" fill="none" id="id69" stroke="none" /><text fill="#e1ed5e" style="font-size:6.75px; font-family:Arial;" text-anchor="middle"><textPath startOffset="21.46611528233685" xlink:href="#id69">September</textPath></text><path d="M 81.51974371655577 109.97397251340807 l -23.068264297468225 12.450164678782228 a47.21357316785798,47.21357316785798 0 0,0 -0.3798387983071631,-0.7185118604085701 l 23.279155604000277 -12.051237803287533" fill="#d9ff1c" stroke="none" /><path d="M 81.35079622478065 109.6543875284942 l -14.95261546897742 7.740724271235921 a37.83744403424711,37.83744403424711 0 0,0 -0.2944497826649691,-0.5809773556561119 l 15.083643921428656 -7.482192703877124" fill="#ffa70f" stroke="none" /><path d="M 81.18737489456691 109.33194174019688 l -24.719246579310518 12.2619021878593 a48.59339407744874,48.59339407744874 0 0,0 -0.3652528097696613,-0.7525289724341645 l 24.926652645694897 -11.834584259459852" fill="#c8ff1d" stroke="none" /><path d="M 81.02952815118164 109.00673069616217 l -20.331182126351884 9.652763705931918 a43.50628387400832,43.50628387400832 0 0,0 -0.31536955869505645,-0.6792779728360998 l 20.49432630188677 -9.30136566581699" fill="#fff517" stroke="none" /><path d="M 80.87730276802145 108.67885076344099 l -23.900492595949828 10.847256843354478 a47.246838425889564,47.246838425889564 0 0,0 -0.3297354947416599,-0.7434664930140965 l 24.083669175422767 -10.434242013847685" fill="#d9ff1c" stroke="none" /><path d="M 80.73074385275274 108.34839909993369 l -20.715976541095124 8.9751902506435 a43.576663262901576,43.576663262901576 0 0,0 -0.2922728696901403,-0.6908467279375037 l 20.86740039197757 -8.617268997039837" fill="#fff617" stroke="none" /><path d="M 80.58989483394504 108.01547362559985 l -23.075069253846046 9.528933894523819 a45.96516377346634,45.96516377346634 0 0,0 -0.2957034981441108,-0.7339118319262974 l 23.23567536624754 -9.130322694754716" fill="#e9ff1a" stroke="none" /><path d="M 80.45479744820244 107.68017299344265 l -12.83950879541604 5.045209863560845 a34.79518498154111,34.79518498154111 0 0,0 -0.21424840289120411,-0.559334973211863 l 12.924451477900751 -4.823451323515823" fill="#ff7b0b" stroke="none" /><path d="M 80.32549172779594 107.34259656027581 l -54.99260220697174 20.523435006301778 a79.69751001492419,79.69751001492419 0 0,0 -0.46860518786363303,-1.2894002190808351 l 55.33773165584059 -19.573786990214824" fill="#47fdff" stroke="none" /><path d="M 79.76711848015287 105.62410040840567 l -13.36912822966569 3.71619432767077 a34.87601131097321,34.87601131097321 0 0,0 -0.15579931955278162,-0.5797872268253909 l 13.431115625560247 -3.48551616766984" fill="#ff7d0b" stroke="none" /><path d="M 79.67330655649465 105.27499134158121 l -25.561244103668116 6.633412448593543 a47.40794124577802,47.40794124577802 0 0,0 -0.19818480256875895,-0.7916497707799276 l 25.671640220531934 -6.192434838416223" fill="#d7ff1c" stroke="none" /><path d="M 79.58551787078972 104.9243191809786 l -22.74333554834388 5.486078107261529 a44.395648417249234,44.395648417249234 0 0,0 -0.17280357984628555,-0.7444332992879342 l 22.83439969412072 -5.09377615062502" fill="#feff18" stroke="none" /><path d="M 79.50377843672027 104.57218783832718 l -24.170118162714516 5.391741105710933 a45.764197627837554,45.764197627837554 0 0,0 -0.16489485740547602,-0.7703338774737216 l 24.259347058844433 -4.974893408821048" fill="#ecff1a" stroke="none" /><path d="M 79.4281124754447 104.21870165774334 l -26.311795869158317 5.395791548973197 a47.859359044851146,47.859359044851146 0 0,0 -0.15855137221390184,-0.8084500310708124 l 26.400777174347883 -4.942077790834429" fill="#d1ff1c" stroke="none" /><path d="M 79.35854240842038 103.8639653848113 l -46.244528604977305 8.656717044993998 a68.04779671667583,68.04779671667583 0 0,0 -0.20561308536441691,-1.1531873764468055 l 46.38668813268091 -7.859410917813978" fill="#38ff7d" stroke="none" /><path d="M 79.29508885075956 103.50808413554451 l -54.440314714335024 9.223956722481043 a76.21620454009897,76.21620454009897 0 0,0 -0.20802757778473807,-1.2953879254434146 l 54.59102404648105 -8.285489567344415" fill="#43ffdb" stroke="none" /><path d="M 79.23777060512086 103.15116336523772 l -54.51654900060619 8.274186203350027 a76.14087660042415,76.14087660042415 0 0,0 -0.1855152479851777,-1.2974932123258736 l 54.65089829960797 -7.3345475190437535" fill="#42ffdb" stroke="none" /><path d="M 79.18660465613746 102.79330883721812 l -30.210022367511428 4.054404437986643 a51.48087345848715,51.48087345848715 0 0,0 -0.11031245753742457,-0.8792988239683768 l 30.2753363342957 -3.5337878597308583" fill="#a5ff21" stroke="none" /><path d="M 79.1416061653843 102.43462659150553 l -49.91531117472326 5.8261985497453095 a71.25418270363679,71.25418270363679 0 0,0 -0.13171063718946363,-1.2194769211800383 l 50.008204113413775 -4.966125306680489" fill="#3cffa3" stroke="none" /><path d="M 79.10278846688536 102.07522291339032 l -58.873638053430454 5.846517966740273 a80.16322362736628,80.16322362736628 0 0,0 -0.12454083497971039,-1.374297736180723 l 58.96555348468724 -4.832238842010984" fill="#48f9ff" stroke="none" /><path d="M 79.07016306316243 101.71520430193888 l -57.9342138906483 4.747720357046487 a79.12842667504515,79.12842667504515 0 0,0 -0.09956406382054751,-1.3584725468142897 l 58.00735451313318 -3.749774673735436" fill="#46fffb" stroke="none" /><path d="M 79.04373962182676 101.35467743843564 l -33.21106092843925 2.1468656207921155 a54.280378603409,54.280378603409 0 0,0 -0.05224783460863073,-0.9329201850471927 l 33.24309511393542 -1.574873719409485" fill="#84ff25" stroke="none" /><path d="M 79.0235259727143 100.99374915477108 l -53.442693208154964 2.531818795437766 a74.50263137224098,74.50263137224098 0 0,0 -0.04966085410402781,-1.2815259813801076 l 53.478356195110194 -1.6115155670436614" fill="#40ffc8" stroke="none" /><path d="M 79.0095281055655 100.63252640178507 l -60.65626990121502 1.827814655109903 a81.68380331474353,81.68380331474353 0 0,0 -0.030253881039631208,-1.4057789715687783 l 60.678745844939655 -0.7834458677509959" fill="#4ae9ff" stroke="none" /><line stroke="#e1ed5e" stroke-width="0.3" x1="15.007084014347285" x2="10.007500721073583" y1="101.09737516637583" y2="101.16192664675087" /><path d="M 14.007167355692545 101.11028546245083 a86.0,86.0 0 0,1 10.666146001902534,-42.60595125391555" fill="none" id="id70" stroke="none" /><text fill="#e1ed5e" style="font-size:6.75px; font-family:Arial;" text-anchor="middle"><textPath startOffset="22.20632615414155" xlink:href="#id70">October</textPath></text><path d="M 79.00175016825051 100.2711162175752 l -60.17183655934091 0.7769009733304387 a81.17685177912182,81.17685177912182 0 0,0 -0.006013668968685331,-1.3973648813056023 l 60.1762945255991 0.25897338617883886" fill="#49eeff" stroke="none" /><path d="M 79.00019446554 99.90962569577889 l -33.04941510395416 -0.1422307406625061 a54.04972115309088,54.04972115309088 0 0,0 0.01201188875766354,-0.930334021846871 l 33.042070208078776 0.711101020569849" fill="#86ff25" stroke="none" /><path d="M 79.01574976396665 99.18683210126434 l -62.95275070810006 -2.4395036962069616 a84.0,84.0 0 0,0 0.06842556706600478,-1.4443555735079636 l 62.90143153280056 3.522770376337934" fill="#4dd2ff" stroke="none" /><path d="M 79.03285615573316 98.82574320788736 l -48.28377544028901 -2.7041141931739148 a69.35943759327625,69.35943759327625 0 0,0 0.07702005204483281,-1.1914661152515862 l 48.230074797239766 3.534839372678513" fill="#39ff8d" stroke="none" /><path d="M 79.05617556472873 98.46500227214037 l -55.31910394883743 -4.0544027253061 a76.46748095200692,76.46748095200692 0 0,0 0.10751151648241807,-1.3119128177708284 l 55.24111794853552 5.006029460284707" fill="#43ffde" stroke="none" /><path d="M 79.08570108090925 98.10471618934814 l -56.22733668896652 -5.095402019208695 a77.45774094729398,77.45774094729398 0 0,0 0.1317625307046987,-1.3268307026237642 l 56.13129703257959 6.062508252536889" fill="#44ffe9" stroke="none" /><path d="M 79.12142395522702 97.74499172005258 l -31.255271525145854 -3.375752059434817 a52.43704343727908,52.43704343727908 0 0,0 0.1046484752377067,-0.8965642280898223 l 31.19253269690456 3.913260025849501" fill="#99ff23" stroke="none" /><path d="M 79.21141760316559 97.0276538004421 l -30.175912177344053 -4.314544213085915 a51.482797894902205,51.482797894902205 0 0,0 0.13298277976447345,-0.8761903649607896 l 30.097173504140276 4.833333690438797" fill="#a5ff21" stroke="none" /><path d="M 79.26566170972629 96.67025291283419 l -49.41458662651374 -7.935535418572776 a71.04771816825073,71.04771816825073 0 0,0 0.20430664016269007,-1.2058293553760147 l 49.27066812483083 8.78495056226462" fill="#3cffa1" stroke="none" /><path d="M 79.32604984820605 96.31383870115002 l -34.366456790829986 -6.127532574608885 a55.9084518105412,55.9084518105412 0 0,0 0.1770814380713588,-0.9459761230196481 l 34.25588962884876 6.718186775091106" fill="#71ff27" stroke="none" /><line stroke="#e1ed5e" stroke-width="0.3" x1="26.266209847984243" x2="21.928928074336255" y1="57.711370442889674" y2="55.22380399835377" /><path d="M 25.398753493254645 57.213857153982495 a86.0,86.0 0 0,1 29.58750427330803,-30.492523968695096" fill="none" id="id71" stroke="none" /><text fill="#e1ed5e" style="font-size:6.75px; font-family:Arial;" text-anchor="middle"><textPath startOffset="21.46611528233685" xlink:href="#id71">November</textPath></text><line stroke="#e1ed5e" stroke-width="0.3" x1="56.762969772571076" x2="54.21961505331055" y1="26.818313649435495" y2="22.513508569990535" /><path d="M 56.25429882871897 25.957352633546506 a86.0,86.0 0 0,1 42.265352541879196,-11.944610805530505" fill="none" id="id72" stroke="none" /><text fill="#e1ed5e" style="font-size:6.75px; font-family:Arial;" text-anchor="middle"><textPath startOffset="22.20632615414155" xlink:href="#id72">December</textPath></text></svg>